<svg width="48" height="48" viewBox="0 0 48 48" fill="none" xmlns="http://www.w3.org/2000/svg">
<g clip-path="url(#clip0_260_144)">
<path fill-rule="evenodd" clip-rule="evenodd" d="M34.0414 19.805L24.0002 2L13.8679 19.9662C11.9569 20.8151 10.2722 21.82 8.84041 22.8225C7.02753 24.0919 5.61449 25.3613 4.65356 26.3145C4.1729 26.7912 3.80481 27.1895 3.55584 27.4698C3.43134 27.61 3.33657 27.7208 3.27236 27.7972C3.24026 27.8354 3.21579 27.8651 3.19906 27.8855L3.17977 27.9092L3.1745 27.9157L3.17247 27.9183C3.1723 27.9185 3.17217 27.9187 3.53491 28.2082C3.89765 28.4977 3.89763 28.4977 3.89758 28.4978L3.89824 28.4969L3.90173 28.4926L3.91737 28.4734C3.93164 28.4559 3.95358 28.4294 3.98307 28.3943C4.04206 28.324 4.13127 28.2197 4.24987 28.0862C4.4871 27.8191 4.84176 27.4352 5.30725 26.9735C6.2386 26.0496 7.61141 24.8162 9.37281 23.5829C10.465 22.8182 11.7044 22.0549 13.0787 21.3656L0 44.5564H48L41.1367 32.3865C41.1473 32.3791 41.1472 32.379 41.1472 32.3789L41.1459 32.377L41.1416 32.3707L41.1258 32.3481C41.1134 32.3304 41.0959 32.3055 41.0732 32.2739L34.8143 21.1755C36.3437 21.9131 37.7132 22.7471 38.9068 23.5829C40.6682 24.8162 42.0411 26.0496 42.9724 26.9735C43.4379 27.4352 43.7926 27.8191 44.0298 28.0862C44.1484 28.2197 44.2376 28.324 44.2966 28.3943C44.3261 28.4294 44.348 28.4559 44.3623 28.4734L44.3779 28.4926L44.3814 28.4969L44.3821 28.4978C44.3821 28.4978 44.3821 28.4977 44.4315 28.4583L44.7448 28.2082C45.1075 27.9187 45.1069 27.9179 45.1067 27.9177L45.1052 27.9157L45.0999 27.9092L45.0806 27.8855C45.0639 27.8651 45.0394 27.8354 45.0073 27.7972C44.9431 27.7208 44.8483 27.61 44.7238 27.4698C44.4749 27.1895 44.1068 26.7912 43.6261 26.3145C42.6652 25.3613 41.2521 24.0919 39.4392 22.8225C37.9157 21.7558 36.1057 20.6863 34.0414 19.805ZM32.6699 19.2627L24.0002 3.8896L15.2562 19.3942C17.8673 18.4016 20.8476 17.7332 24.1396 17.7332C27.2841 17.7332 30.1443 18.343 32.6699 19.2627ZM33.3889 20.5377C30.7052 19.4291 27.5981 18.6614 24.1396 18.6614C20.5227 18.6614 17.2901 19.5011 14.5241 20.6923L9.85268 28.9756C10.3425 28.5042 10.889 28.0125 11.4894 27.5208C14.4416 25.1026 18.7319 22.654 24.0087 22.654C29.2852 22.654 33.5754 25.1026 36.5276 27.5208C37.1131 28.0003 37.6473 28.4798 38.1276 28.9404L33.3889 20.5377ZM40.29 32.7746C40.243 32.7097 40.1781 32.6215 40.0956 32.5129C39.9586 32.3324 39.7733 32.0958 39.5417 31.8163L39.3352 31.9863C38.8504 32.385 38.1675 32.9446 37.3748 33.5883C35.7901 34.875 33.7638 36.5 32.0041 37.8476C29.09 40.0785 26.1595 40.81 24.1302 40.841V40.8421H23.9952V40.841C21.9667 40.81 19.0358 40.0785 16.1217 37.8476C14.3667 36.5036 12.3439 34.9462 10.7602 33.7249C9.96823 33.1142 9.28598 32.5876 8.8017 32.2135L8.40222 31.9049C8.20437 32.146 8.0436 32.3518 7.92131 32.5129C7.82507 32.6396 7.7527 32.7386 7.70489 32.8052C7.68098 32.8385 7.66322 32.8637 7.65168 32.8802L7.64612 32.8882L4.86432 37.8208C5.00092 37.9108 5.17323 38.0245 5.37613 38.1586C5.92456 38.5211 6.69652 39.0327 7.59077 39.629C9.34243 40.7971 11.565 42.2915 13.4962 43.6282H34.6382C36.5673 42.2861 38.7561 40.7923 40.4744 39.626C41.3515 39.0307 42.1063 38.5205 42.6419 38.1592C42.8384 38.0266 43.0053 37.9141 43.138 37.8248L40.29 32.7746ZM43.5954 38.6358C43.474 38.7176 43.3282 38.8159 43.1611 38.9287C42.626 39.2896 41.8719 39.7993 40.9957 40.394C39.5987 41.3422 37.8919 42.5061 36.2675 43.6282H46.4109L43.5954 38.6358ZM11.859 43.6282C10.2279 42.5114 8.49764 41.3494 7.07579 40.4013C6.18279 39.8058 5.41191 39.295 4.8643 38.933C4.68755 38.8162 4.53406 38.7149 4.40725 38.6312L1.58913 43.6282H11.859ZM38.9359 31.1128C38.1968 30.2852 37.1883 29.2618 35.9394 28.2388C33.9381 26.5996 31.3367 24.9752 28.2489 24.147C30.1654 25.5251 31.4146 27.8038 31.4146 30.3738C31.4146 34.5647 28.0936 37.9804 23.9737 37.9804C19.8542 37.9804 16.5328 34.5647 16.5328 30.3738C16.5328 27.8226 17.764 25.5583 19.6569 24.1773C16.6177 25.0144 14.0547 26.6193 12.0775 28.2388C10.7855 29.2971 9.75073 30.356 9.00535 31.1979L9.36908 31.4789C9.85321 31.8528 10.5353 32.3794 11.327 32.9899C12.9104 34.2109 14.9322 35.7676 16.686 37.1106C19.4673 39.2398 22.2314 39.8978 24.0627 39.9136C25.8948 39.8978 28.6585 39.2398 31.4398 37.1106C33.189 35.7711 35.2072 34.1527 36.7897 32.8677C37.5806 32.2255 38.262 31.6671 38.7456 31.2694L38.9359 31.1128ZM23.9739 28.2304C22.8336 28.2304 21.8909 29.1797 21.8909 30.3739C21.8909 31.568 22.8336 32.5173 23.9739 32.5173C25.1141 32.5173 26.0568 31.568 26.0568 30.3739C26.0568 29.1797 25.1141 28.2304 23.9739 28.2304ZM20.9627 30.3739C20.9627 28.6877 22.3006 27.3022 23.9739 27.3022C25.6472 27.3022 26.985 28.6877 26.985 30.3739C26.985 32.06 25.6472 33.4455 23.9739 33.4455C22.3006 33.4455 20.9627 32.06 20.9627 30.3739ZM17.461 30.3738C17.461 26.6754 20.3873 23.6955 23.9737 23.6955C27.5605 23.6955 30.4863 26.6754 30.4863 30.3738C30.4863 34.0727 27.5605 37.0522 23.9737 37.0522C20.3873 37.0522 17.461 34.0727 17.461 30.3738Z" fill="#2C0F5C"/>
<path d="M24.0002 2L24.1091 1.9386L24.0002 1.74553L23.8913 1.9386L24.0002 2ZM34.0414 19.805L33.9325 19.8664L33.9533 19.9033L33.9923 19.9199L34.0414 19.805ZM13.8679 19.9662L13.9187 20.0805L13.9565 20.0637L13.9768 20.0276L13.8679 19.9662ZM8.84041 22.8225L8.91211 22.9249L8.84041 22.8225ZM4.65356 26.3145L4.56553 26.2257L4.65356 26.3145ZM3.55584 27.4698L3.46238 27.3868H3.46238L3.55584 27.4698ZM3.27236 27.7972L3.36807 27.8776L3.27236 27.7972ZM3.19906 27.8855L3.10232 27.8063L3.1021 27.8066L3.19906 27.8855ZM3.17977 27.9092L3.08281 27.8303L3.08243 27.8308L3.17977 27.9092ZM3.1745 27.9157L3.07716 27.8373L3.07697 27.8376L3.1745 27.9157ZM3.17247 27.9183L3.07494 27.8401L3.07466 27.8404L3.17247 27.9183ZM3.89758 28.4978L3.79945 28.4203L3.99512 28.5759L3.89758 28.4978ZM3.89824 28.4969L3.80091 28.4185L3.80071 28.4188L3.89824 28.4969ZM3.90173 28.4926L3.80478 28.4137L3.8044 28.4142L3.90173 28.4926ZM3.91737 28.4734L3.82064 28.3942L3.82042 28.3945L3.91737 28.4734ZM3.98307 28.3943L3.88736 28.3139L3.88736 28.3139L3.98307 28.3943ZM4.24987 28.0862L4.15641 28.0032H4.1564L4.24987 28.0862ZM5.30725 26.9735L5.21922 26.8847L5.30725 26.9735ZM9.37281 23.5829L9.44451 23.6853L9.37281 23.5829ZM13.0787 21.3656L13.1876 21.427L13.3888 21.0703L13.0227 21.2539L13.0787 21.3656ZM0 44.5564L-0.108879 44.495L-0.214003 44.6814H0V44.5564ZM48 44.5564V44.6814H48.214L48.1089 44.495L48 44.5564ZM41.1367 32.3865L41.065 32.2841L40.9721 32.3491L41.0278 32.4479L41.1367 32.3865ZM41.1472 32.3789L41.2512 32.3095L41.2503 32.3082L41.1472 32.3789ZM41.1459 32.377L41.249 32.3064L41.2489 32.3061L41.1459 32.377ZM41.1416 32.3707L41.2445 32.2998L41.2442 32.2994L41.1416 32.3707ZM41.1258 32.3481L41.2284 32.2767L41.2282 32.2764L41.1258 32.3481ZM41.0732 32.2739L40.9637 32.3356L40.9716 32.3467L41.0732 32.2739ZM34.8143 21.1755L34.8686 21.0629L34.5096 20.8898L34.7054 21.2369L34.8143 21.1755ZM38.9068 23.5829L38.9785 23.4805L38.9068 23.5829ZM42.9724 26.9735L42.8844 27.0622H42.8844L42.9724 26.9735ZM44.0298 28.0862L44.1233 28.0032L44.1233 28.0032L44.0298 28.0862ZM44.2966 28.3943L44.3923 28.3139L44.3923 28.3139L44.2966 28.3943ZM44.3623 28.4734L44.4592 28.3945L44.459 28.3942L44.3623 28.4734ZM44.3779 28.4926L44.4753 28.4142L44.4749 28.4137L44.3779 28.4926ZM44.3814 28.4969L44.4788 28.4186L44.4788 28.4185L44.3814 28.4969ZM44.3821 28.4978L44.2881 28.5801L44.4795 28.4195L44.3821 28.4978ZM44.4315 28.4583L44.3535 28.3606L44.3534 28.3606L44.4315 28.4583ZM44.7448 28.2082L44.6668 28.1105L44.6668 28.1105L44.7448 28.2082ZM45.1067 27.9177L45.0091 27.9958L45.0093 27.9959L45.1067 27.9177ZM45.1052 27.9157L45.2027 27.8376L45.2025 27.8373L45.1052 27.9157ZM45.0999 27.9092L45.1972 27.8308L45.1969 27.8303L45.0999 27.9092ZM45.0806 27.8855L45.1776 27.8066L45.1773 27.8063L45.0806 27.8855ZM45.0073 27.7972L44.9116 27.8776L44.9116 27.8776L45.0073 27.7972ZM44.7238 27.4698L44.6304 27.5528L44.6304 27.5528L44.7238 27.4698ZM43.6261 26.3145L43.7141 26.2257L43.6261 26.3145ZM39.4392 22.8225L39.3675 22.9249L39.4392 22.8225ZM32.6699 19.2627L32.6271 19.3802L32.9449 19.4959L32.7788 19.2013L32.6699 19.2627ZM24.0002 3.8896L24.1091 3.8282L24.0002 3.63513L23.8913 3.82819L24.0002 3.8896ZM15.2562 19.3942L15.1473 19.3328L14.9775 19.6339L15.3006 19.5111L15.2562 19.3942ZM33.3889 20.5377L33.4978 20.4762L33.4766 20.4386L33.4366 20.4221L33.3889 20.5377ZM14.5241 20.6923L14.4747 20.5774L14.436 20.5941L14.4153 20.6308L14.5241 20.6923ZM9.85268 28.9756L9.7438 28.9142L9.93936 29.0656L9.85268 28.9756ZM11.4894 27.5208L11.5686 27.6175L11.4894 27.5208ZM36.5276 27.5208L36.6068 27.4241L36.5276 27.5208ZM38.1276 28.9404L38.0411 29.0306L38.2365 28.879L38.1276 28.9404ZM40.29 32.7746L40.3995 32.7128L40.3912 32.7013L40.29 32.7746ZM40.0956 32.5129L40.1952 32.4373L40.0956 32.5129ZM39.5417 31.8163L39.6379 31.7366L39.5584 31.6407L39.4622 31.7198L39.5417 31.8163ZM39.3352 31.9863L39.4146 32.0828L39.4146 32.0828L39.3352 31.9863ZM37.3748 33.5883L37.4536 33.6853L37.3748 33.5883ZM32.0041 37.8476L32.0801 37.9468L32.0801 37.9468L32.0041 37.8476ZM24.1302 40.841L24.1283 40.716L24.0052 40.7179V40.841H24.1302ZM24.1302 40.8421V40.9671H24.2552V40.8421H24.1302ZM23.9952 40.8421H23.8702V40.9671H23.9952V40.8421ZM23.9952 40.841H24.1202V40.7179L23.9971 40.716L23.9952 40.841ZM16.1217 37.8476L16.0457 37.9468L16.0457 37.9468L16.1217 37.8476ZM10.7602 33.7249L10.8365 33.6259L10.7602 33.7249ZM8.8017 32.2135L8.72527 32.3124L8.72529 32.3125L8.8017 32.2135ZM8.40222 31.9049L8.47865 31.806L8.38259 31.7317L8.30559 31.8256L8.40222 31.9049ZM7.92131 32.5129L7.82175 32.4373L7.92131 32.5129ZM7.70489 32.8052L7.60336 32.7323L7.60336 32.7323L7.70489 32.8052ZM7.65168 32.8802L7.54925 32.8085L7.54907 32.8088L7.65168 32.8802ZM7.64612 32.8882L7.54305 32.8165L7.53724 32.8268L7.64612 32.8882ZM4.86432 37.8208L4.75544 37.7594L4.69816 37.8609L4.79552 37.9251L4.86432 37.8208ZM5.37613 38.1586L5.3072 38.2629H5.3072L5.37613 38.1586ZM7.59077 39.629L7.66012 39.525H7.66012L7.59077 39.629ZM13.4962 43.6282L13.4251 43.731L13.4572 43.7532H13.4962V43.6282ZM34.6382 43.6282V43.7532H34.6774L34.7096 43.7308L34.6382 43.6282ZM40.4744 39.626L40.4042 39.5226L40.4744 39.626ZM42.6419 38.1592L42.7118 38.2628L42.6419 38.1592ZM43.138 37.8248L43.2078 37.9284L43.3036 37.8639L43.2469 37.7634L43.138 37.8248ZM43.1611 38.9287L43.0911 38.825L43.1611 38.9287ZM43.5954 38.6358L43.7043 38.5744L43.6378 38.4565L43.5256 38.5322L43.5954 38.6358ZM40.9957 40.394L41.0659 40.4975L40.9957 40.394ZM36.2675 43.6282L36.1965 43.5254L35.8667 43.7532H36.2675V43.6282ZM46.4109 43.6282V43.7532H46.6249L46.5198 43.5668L46.4109 43.6282ZM11.859 43.6282V43.7532H12.2628L11.9296 43.5251L11.859 43.6282ZM7.07579 40.4013L7.00644 40.5053L7.00644 40.5053L7.07579 40.4013ZM4.8643 38.933L4.79537 39.0373H4.79538L4.8643 38.933ZM4.40725 38.6312L4.47607 38.5269L4.3642 38.4531L4.29837 38.5698L4.40725 38.6312ZM1.58913 43.6282L1.48025 43.5668L1.37513 43.7532H1.58913V43.6282ZM35.9394 28.2388L35.8602 28.3355L35.9394 28.2388ZM38.9359 31.1128L39.0153 31.2093L39.1158 31.1266L39.0291 31.0295L38.9359 31.1128ZM28.2489 24.147L28.2813 24.0263L28.1759 24.2485L28.2489 24.147ZM19.6569 24.1773L19.7305 24.2783L19.6237 24.0568L19.6569 24.1773ZM12.0775 28.2388L12.1567 28.3355L12.0775 28.2388ZM9.00535 31.1979L8.91176 31.115L8.82317 31.2151L8.92893 31.2968L9.00535 31.1979ZM9.36908 31.4789L9.29265 31.5778L9.29267 31.5778L9.36908 31.4789ZM11.327 32.9899L11.4033 32.8909L11.327 32.9899ZM16.686 37.1106L16.61 37.2098L16.61 37.2099L16.686 37.1106ZM24.0627 39.9136L24.0616 40.0386L24.0638 40.0385L24.0627 39.9136ZM31.4398 37.1106L31.5158 37.2098L31.5158 37.2098L31.4398 37.1106ZM36.7897 32.8677L36.8685 32.9647L36.7897 32.8677ZM38.7456 31.2694L38.825 31.3659L38.825 31.3659L38.7456 31.2694ZM23.8913 2.0614L33.9325 19.8664L34.1502 19.7436L24.1091 1.9386L23.8913 2.0614ZM13.9768 20.0276L24.1091 2.0614L23.8913 1.9386L13.7591 19.9048L13.9768 20.0276ZM13.8172 19.852C11.8976 20.7046 10.206 21.7138 8.76872 22.7201L8.91211 22.9249C10.3384 21.9263 12.0161 20.9256 13.9187 20.0805L13.8172 19.852ZM8.76872 22.7201C6.9489 23.9944 5.53044 25.2686 4.56553 26.2257L4.74159 26.4032C5.69853 25.454 7.10616 24.1895 8.91211 22.9249L8.76872 22.7201ZM4.56553 26.2257C4.08283 26.7045 3.71293 27.1047 3.46238 27.3868L3.6493 27.5528C3.8967 27.2743 4.26297 26.878 4.74159 26.4032L4.56553 26.2257ZM3.46238 27.3868C3.33708 27.5279 3.24157 27.6395 3.17666 27.7168L3.36807 27.8776C3.43158 27.802 3.52559 27.6921 3.6493 27.5528L3.46238 27.3868ZM3.17666 27.7168C3.1442 27.7554 3.11939 27.7855 3.10232 27.8063L3.29579 27.9647C3.31219 27.9446 3.33632 27.9154 3.36807 27.8776L3.17666 27.7168ZM3.1021 27.8066L3.08282 27.8303L3.27673 27.9881L3.29601 27.9644L3.1021 27.8066ZM3.08243 27.8308L3.07716 27.8373L3.27184 27.9942L3.27711 27.9876L3.08243 27.8308ZM3.07697 27.8376L3.07494 27.8401L3.27001 27.9964L3.27204 27.9939L3.07697 27.8376ZM3.07466 27.8404C3.07664 27.8379 3.06009 27.8565 3.05223 27.8841C3.04306 27.9164 3.04874 27.9445 3.05552 27.9624C3.06141 27.9781 3.0691 27.9888 3.07225 27.993C3.07604 27.9981 3.07943 28.0018 3.0812 28.0037C3.08472 28.0075 3.08774 28.0102 3.08865 28.0111C3.08996 28.0123 3.09108 28.0132 3.09173 28.0138C3.09392 28.0157 3.09662 28.0179 3.09925 28.02C3.10526 28.0249 3.11688 28.0342 3.13947 28.0523C3.18485 28.0886 3.27558 28.1611 3.45694 28.3059L3.61288 28.1105C3.4315 27.9657 3.34092 27.8933 3.29572 27.8571C3.27303 27.839 3.26205 27.8301 3.25679 27.8259C3.25379 27.8234 3.2537 27.8233 3.25452 27.824C3.25482 27.8243 3.25568 27.825 3.2568 27.8261C3.25753 27.8267 3.26042 27.8293 3.26386 27.833C3.26559 27.8349 3.26895 27.8386 3.27272 27.8436C3.27585 27.8478 3.28353 27.8586 3.28942 27.8742C3.29619 27.8921 3.30187 27.9202 3.2927 27.9525C3.28485 27.9801 3.2683 27.9986 3.27029 27.9961L3.07466 27.8404ZM3.45694 28.3059C3.63831 28.4506 3.72898 28.523 3.77429 28.5592C3.79697 28.5773 3.80822 28.5863 3.81378 28.5907C3.81667 28.593 3.81772 28.5939 3.81801 28.5941C3.81858 28.5946 3.81728 28.5936 3.81568 28.5922C3.81517 28.5917 3.81408 28.5908 3.81272 28.5895C3.81181 28.5887 3.80852 28.5856 3.80468 28.5814C3.80274 28.5792 3.79905 28.575 3.79502 28.5692C3.79154 28.5642 3.78374 28.5524 3.77836 28.5353C3.77206 28.5153 3.7692 28.4881 3.7788 28.4588C3.78676 28.4345 3.80133 28.4179 3.79945 28.4203L3.99571 28.5752C3.99384 28.5776 4.00841 28.561 4.01637 28.5367C4.02597 28.5074 4.02311 28.4802 4.01681 28.4602C4.01143 28.4431 4.00363 28.4313 4.00014 28.4263C3.99611 28.4205 3.99242 28.4163 3.99048 28.4141C3.98663 28.4098 3.98332 28.4068 3.98238 28.4059C3.98101 28.4046 3.97988 28.4037 3.97933 28.4032C3.97756 28.4016 3.97591 28.4003 3.97577 28.4002C3.97466 28.3993 3.97289 28.3979 3.97011 28.3956C3.96436 28.391 3.95295 28.3819 3.9303 28.3638C3.88495 28.3276 3.79425 28.2552 3.61288 28.1105L3.45694 28.3059ZM3.99512 28.5759L3.99577 28.5751L3.80071 28.4188L3.80005 28.4196L3.99512 28.5759ZM3.99557 28.5754L3.99906 28.571L3.8044 28.4142L3.80091 28.4185L3.99557 28.5754ZM3.99868 28.5715L4.01432 28.5523L3.82042 28.3945L3.80478 28.4137L3.99868 28.5715ZM4.01411 28.5525C4.02805 28.5355 4.04964 28.5094 4.07878 28.4747L3.88736 28.3139C3.85752 28.3494 3.83524 28.3764 3.82064 28.3942L4.01411 28.5525ZM4.07878 28.4747C4.13706 28.4053 4.22552 28.3018 4.34333 28.1692L4.1564 28.0032C4.03701 28.1376 3.94705 28.2428 3.88736 28.3139L4.07878 28.4747ZM4.34333 28.1692C4.57898 27.9038 4.93184 27.5219 5.39528 27.0622L5.21922 26.8847C4.75169 27.3485 4.39522 27.7343 4.15641 28.0032L4.34333 28.1692ZM5.39528 27.0622C6.32264 26.1423 7.69004 24.9138 9.44451 23.6853L9.30112 23.4805C7.53278 24.7187 6.15455 25.9569 5.21922 26.8847L5.39528 27.0622ZM9.44451 23.6853C10.5323 22.9236 11.7665 22.1636 13.1348 21.4774L13.0227 21.2539C11.6422 21.9462 10.3976 22.7127 9.30112 23.4805L9.44451 23.6853ZM0.108879 44.6179L13.1876 21.427L12.9699 21.3042L-0.108879 44.495L0.108879 44.6179ZM48 44.4314H0V44.6814H48V44.4314ZM41.0278 32.4479L47.8911 44.6179L48.1089 44.495L41.2456 32.3251L41.0278 32.4479ZM41.0432 32.4482C41.0438 32.4492 41.0243 32.4232 41.0223 32.3852C41.0205 32.3495 41.0343 32.3239 41.0405 32.3138C41.0471 32.303 41.0538 32.2957 41.0564 32.293C41.0596 32.2896 41.0624 32.2871 41.0638 32.2858C41.0667 32.2832 41.0691 32.2814 41.0697 32.2809C41.0706 32.2802 41.0713 32.2797 41.0714 32.2796C41.0717 32.2794 41.0703 32.2804 41.065 32.2841L41.2084 32.4889C41.2137 32.4852 41.2176 32.4824 41.2204 32.4803C41.2208 32.48 41.2254 32.4767 41.2303 32.4723C41.2318 32.471 41.2346 32.4684 41.2379 32.465C41.2405 32.4622 41.2472 32.4549 41.2539 32.4441C41.26 32.434 41.2738 32.4083 41.272 32.3726C41.2701 32.3345 41.2506 32.3086 41.2512 32.3096L41.0432 32.4482ZM41.0428 32.4477L41.0441 32.4495L41.2503 32.3082L41.249 32.3064L41.0428 32.4477ZM41.0386 32.4416L41.043 32.4479L41.2489 32.3061L41.2445 32.2998L41.0386 32.4416ZM41.0232 32.4195L41.039 32.4421L41.2442 32.2994L41.2284 32.2767L41.0232 32.4195ZM40.9716 32.3467C40.994 32.3779 41.0113 32.4024 41.0234 32.4197L41.2282 32.2764C41.2156 32.2583 41.1978 32.2331 41.1748 32.2011L40.9716 32.3467ZM34.7054 21.2369L40.9643 32.3353L41.1821 32.2125L34.9231 21.1141L34.7054 21.2369ZM34.76 21.2881C36.2825 22.0224 37.6462 22.8528 38.8351 23.6853L38.9785 23.4805C37.7801 22.6414 36.4048 21.8038 34.8686 21.0629L34.76 21.2881ZM38.8351 23.6853C40.5896 24.9138 41.957 26.1423 42.8844 27.0622L43.0604 26.8847C42.1251 25.9569 40.7469 24.7187 38.9785 23.4805L38.8351 23.6853ZM42.8844 27.0622C43.3478 27.5219 43.7007 27.9038 43.9363 28.1692L44.1233 28.0032C43.8844 27.7343 43.528 27.3485 43.0604 26.8847L42.8844 27.0622ZM43.9363 28.1692C44.0541 28.3018 44.1426 28.4053 44.2009 28.4747L44.3923 28.3139C44.3326 28.2428 44.2427 28.1376 44.1233 28.0032L43.9363 28.1692ZM44.2009 28.4747C44.23 28.5094 44.2516 28.5355 44.2655 28.5525L44.459 28.3942C44.4444 28.3764 44.4221 28.3494 44.3923 28.3139L44.2009 28.4747ZM44.2654 28.5523L44.281 28.5715L44.4749 28.4137L44.4592 28.3945L44.2654 28.5523ZM44.2806 28.571L44.2841 28.5754L44.4788 28.4185L44.4753 28.4142L44.2806 28.571ZM44.284 28.5753L44.2847 28.5762L44.4795 28.4195L44.4788 28.4186L44.284 28.5753ZM44.4762 28.4155C44.4762 28.4155 44.4765 28.4158 44.4767 28.4161C44.477 28.4164 44.4777 28.4173 44.4782 28.4178C44.4795 28.4193 44.4814 28.4218 44.4837 28.425C44.4883 28.4314 44.4947 28.4415 44.4996 28.455C44.5107 28.4855 44.5079 28.5139 44.5017 28.5344C44.4964 28.5518 44.4885 28.5638 44.485 28.5688C44.481 28.5746 44.4774 28.5789 44.4754 28.581C44.4716 28.5853 44.4683 28.5884 44.4674 28.5892C44.466 28.5905 44.4649 28.5915 44.4644 28.5919C44.4627 28.5934 44.4614 28.5944 44.462 28.594C44.4623 28.5937 44.4634 28.5928 44.4665 28.5903C44.4726 28.5855 44.4848 28.5757 44.5095 28.5559L44.3534 28.3606C44.3287 28.3804 44.3163 28.3903 44.31 28.3954C44.307 28.3978 44.305 28.3994 44.3038 28.4004C44.3036 28.4005 44.3019 28.4019 44.3001 28.4035C44.2995 28.404 44.2984 28.405 44.297 28.4063C44.296 28.4072 44.2927 28.4103 44.2889 28.4146C44.2869 28.4168 44.2833 28.421 44.2792 28.4268C44.2758 28.4318 44.2679 28.4439 44.2626 28.4613C44.2563 28.4817 44.2536 28.5102 44.2647 28.5406C44.2696 28.5541 44.2759 28.5642 44.2806 28.5707C44.2828 28.5739 44.2848 28.5763 44.2861 28.5778C44.2866 28.5784 44.2873 28.5792 44.2875 28.5795C44.2878 28.5798 44.2881 28.5801 44.2881 28.5801L44.4762 28.4155ZM44.5094 28.556L44.8228 28.3058L44.6668 28.1105L44.3535 28.3606L44.5094 28.556ZM44.8227 28.3059C45.0041 28.1611 45.0949 28.0884 45.1403 28.0517C45.1629 28.0335 45.1747 28.0239 45.181 28.0187C45.1837 28.0164 45.1869 28.0137 45.1897 28.0112C45.1905 28.0105 45.1919 28.0092 45.1935 28.0076C45.1947 28.0065 45.1982 28.0031 45.2021 27.9984C45.2025 27.998 45.2186 27.9804 45.2267 27.9527C45.2321 27.934 45.2349 27.9079 45.2257 27.8793C45.2215 27.8663 45.2159 27.8562 45.2114 27.8494C45.2092 27.8461 45.2073 27.8435 45.2061 27.8418C45.2056 27.8412 45.2049 27.8403 45.2046 27.84C45.2044 27.8397 45.2041 27.8394 45.2041 27.8394L45.0093 27.9959C45.0093 27.9959 45.009 27.9956 45.0088 27.9953C45.0085 27.995 45.0078 27.9941 45.0073 27.9935C45.0061 27.9918 45.0042 27.9893 45.002 27.9859C44.9975 27.9791 44.9919 27.969 44.9877 27.956C44.9785 27.9274 44.9813 27.9013 44.9867 27.8827C44.9948 27.855 45.0108 27.8375 45.0112 27.8371C45.015 27.8325 45.0184 27.8293 45.0194 27.8283C45.0208 27.8269 45.0219 27.8259 45.0224 27.8254C45.0239 27.8241 45.0243 27.8238 45.0215 27.8262C45.0166 27.8302 45.0059 27.8389 44.9834 27.8571C44.9385 27.8933 44.8481 27.9657 44.6668 28.1105L44.8227 28.3059ZM45.2043 27.8395L45.2027 27.8376L45.0076 27.9939L45.0091 27.9958L45.2043 27.8395ZM45.2025 27.8373L45.1972 27.8308L45.0026 27.9876L45.0078 27.9942L45.2025 27.8373ZM45.1969 27.8303L45.1776 27.8066L44.9837 27.9644L45.0029 27.9881L45.1969 27.8303ZM45.1773 27.8063C45.1603 27.7855 45.1355 27.7554 45.103 27.7168L44.9116 27.8776C44.9433 27.9154 44.9675 27.9446 44.9839 27.9647L45.1773 27.8063ZM45.103 27.7168C45.0381 27.6395 44.9426 27.5279 44.8173 27.3868L44.6304 27.5528C44.7541 27.6921 44.8481 27.802 44.9116 27.8776L45.103 27.7168ZM44.8173 27.3868C44.5667 27.1047 44.1968 26.7045 43.7141 26.2257L43.5381 26.4032C44.0167 26.878 44.383 27.2743 44.6304 27.5528L44.8173 27.3868ZM43.7141 26.2257C42.7492 25.2686 41.3307 23.9944 39.5109 22.7201L39.3675 22.9249C41.1735 24.1895 42.5811 25.454 43.5381 26.4032L43.7141 26.2257ZM39.5109 22.7201C37.9815 21.6493 36.1641 20.5753 34.0904 19.69L33.9923 19.9199C36.0474 20.7973 37.8498 21.8623 39.3675 22.9249L39.5109 22.7201ZM32.7788 19.2013L24.1091 3.8282L23.8913 3.951L32.561 19.3241L32.7788 19.2013ZM23.8913 3.82819L15.1473 19.3328L15.365 19.4557L24.1091 3.951L23.8913 3.82819ZM24.1396 17.6082C20.8305 17.6082 17.8351 18.2801 15.2118 19.2774L15.3006 19.5111C17.8995 18.523 20.8648 17.8582 24.1396 17.8582V17.6082ZM32.7127 19.1453C30.1751 18.2212 27.3005 17.6082 24.1396 17.6082V17.8582C27.2677 17.8582 30.1134 18.4648 32.6271 19.3802L32.7127 19.1453ZM24.1396 18.7864C27.5793 18.7864 30.6702 19.5498 33.3412 20.6532L33.4366 20.4221C30.7402 19.3083 27.6169 18.5364 24.1396 18.5364V18.7864ZM14.5736 20.8071C17.3266 19.6214 20.5424 18.7864 24.1396 18.7864V18.5364C20.503 18.5364 17.2536 19.3807 14.4747 20.5774L14.5736 20.8071ZM14.4153 20.6308L9.7438 28.9142L9.96156 29.037L14.633 20.7537L14.4153 20.6308ZM9.93936 29.0656C10.427 28.5963 10.971 28.1069 11.5686 27.6175L11.4102 27.4241C10.8069 27.9181 10.258 28.412 9.766 28.8855L9.93936 29.0656ZM11.5686 27.6175C14.5085 25.2094 18.7716 22.779 24.0087 22.779V22.529C18.6923 22.529 14.3746 24.9959 11.4102 27.4241L11.5686 27.6175ZM24.0087 22.779C29.2455 22.779 33.5085 25.2094 36.4484 27.6175L36.6068 27.4241C33.6424 24.9959 29.3248 22.529 24.0087 22.529V22.779ZM36.4484 27.6175C37.0311 28.0948 37.5629 28.572 38.0411 29.0306L38.2142 28.8502C37.7317 28.3875 37.195 27.9059 36.6068 27.4241L36.4484 27.6175ZM38.2365 28.879L33.4978 20.4762L33.28 20.5991L38.0188 29.0018L38.2365 28.879ZM40.3912 32.7013C40.3437 32.6357 40.2782 32.5467 40.1952 32.4373L39.996 32.5885C40.0779 32.6963 40.1423 32.7837 40.1887 32.8479L40.3912 32.7013ZM40.1952 32.4373C40.0572 32.2555 39.8708 32.0175 39.6379 31.7366L39.4454 31.8961C39.6759 32.1741 39.86 32.4093 39.996 32.5885L40.1952 32.4373ZM39.4622 31.7198L39.2558 31.8898L39.4146 32.0828L39.6211 31.9128L39.4622 31.7198ZM39.2558 31.8897C38.7712 32.2883 38.0885 32.8478 37.296 33.4912L37.4536 33.6853C38.2465 33.0414 38.9297 32.4817 39.4146 32.0828L39.2558 31.8897ZM37.296 33.4912C35.7116 34.7777 33.6864 36.4019 31.9281 37.7483L32.0801 37.9468C33.8412 36.5982 35.8686 34.9723 37.4536 33.6853L37.296 33.4912ZM31.9281 37.7483C29.0356 39.9627 26.1312 40.6854 24.1283 40.716L24.1321 40.966C26.1878 40.9346 29.1444 40.1943 32.0801 37.9468L31.9281 37.7483ZM24.0052 40.841V40.8421H24.2552V40.841H24.0052ZM24.1302 40.7171H23.9952V40.9671H24.1302V40.7171ZM24.1202 40.8421V40.841H23.8702V40.8421H24.1202ZM23.9971 40.716C21.995 40.6854 19.0902 39.9627 16.1977 37.7483L16.0457 37.9468C18.9814 40.1943 21.9383 40.9346 23.9933 40.966L23.9971 40.716ZM16.1977 37.7483C14.4428 36.4045 12.4202 34.8472 10.8365 33.6259L10.6838 33.8239C12.2676 35.0452 14.2905 36.6028 16.0457 37.9468L16.1977 37.7483ZM10.8365 33.6259C10.0446 33.0153 9.36237 32.4886 8.87811 32.1146L8.72529 32.3125C9.20959 32.6865 9.89187 33.2132 10.6838 33.8239L10.8365 33.6259ZM8.87813 32.1146L8.47865 31.806L8.32579 32.0038L8.72527 32.3124L8.87813 32.1146ZM8.30559 31.8256C8.10667 32.068 7.94494 32.275 7.82175 32.4373L8.02087 32.5885C8.14227 32.4285 8.30206 32.224 8.49885 31.9842L8.30559 31.8256ZM7.82175 32.4373C7.72481 32.565 7.65179 32.6649 7.60336 32.7323L7.80642 32.8781C7.85362 32.8124 7.92533 32.7143 8.02087 32.5885L7.82175 32.4373ZM7.60336 32.7323C7.57915 32.766 7.56108 32.7916 7.54925 32.8085L7.7541 32.9518C7.76535 32.9357 7.78282 32.911 7.80642 32.8781L7.60336 32.7323ZM7.54907 32.8088L7.54351 32.8168L7.74872 32.9596L7.75428 32.9516L7.54907 32.8088ZM7.53724 32.8268L4.75544 37.7594L4.9732 37.8822L7.755 32.9496L7.53724 32.8268ZM4.79552 37.9251C4.93208 38.0152 5.10435 38.1288 5.3072 38.2629L5.44505 38.0544C5.24212 37.9202 5.06977 37.8065 4.93313 37.7164L4.79552 37.9251ZM5.3072 38.2629C5.85552 38.6254 6.62734 39.1368 7.52142 39.733L7.66012 39.525C6.7657 38.9286 5.9936 38.4169 5.44505 38.0544L5.3072 38.2629ZM7.52142 39.733C9.27286 40.9009 11.4948 42.3949 13.4251 43.731L13.5674 43.5255C11.6353 42.1881 9.41199 40.6932 7.66012 39.525L7.52142 39.733ZM13.4962 43.7532H34.6382V43.5032H13.4962V43.7532ZM40.4042 39.5226C38.6857 40.6889 36.4965 42.183 34.5668 43.5256L34.7096 43.7308C36.6381 42.3891 38.8264 40.8956 40.5446 39.7294L40.4042 39.5226ZM42.572 38.0556C42.0364 38.417 41.2814 38.9272 40.4042 39.5226L40.5446 39.7294C41.4216 39.1342 42.1763 38.6241 42.7118 38.2628L42.572 38.0556ZM43.0682 37.7211C42.9355 37.8105 42.7685 37.923 42.572 38.0556L42.7118 38.2628C42.9083 38.1303 43.0752 38.0178 43.2078 37.9284L43.0682 37.7211ZM43.2469 37.7634L40.3988 32.7132L40.1811 32.836L43.0291 37.8862L43.2469 37.7634ZM43.231 39.0323C43.3981 38.9195 43.5438 38.8213 43.6652 38.7395L43.5256 38.5322C43.4041 38.614 43.2583 38.7122 43.0911 38.825L43.231 39.0323ZM41.0659 40.4975C41.942 39.9028 42.696 39.3932 43.231 39.0323L43.0911 38.825C42.5561 39.1861 41.8019 39.6958 40.9255 40.2906L41.0659 40.4975ZM36.3386 43.7311C37.9625 42.6092 39.669 41.4455 41.0659 40.4975L40.9255 40.2906C39.5283 41.2389 37.8212 42.403 36.1965 43.5254L36.3386 43.7311ZM36.2675 43.7532H46.4109V43.5032H36.2675V43.7532ZM46.5198 43.5668L43.7043 38.5744L43.4865 38.6972L46.302 43.6896L46.5198 43.5668ZM11.9296 43.5251C10.2979 42.4078 8.56721 41.2456 7.14514 40.2973L7.00644 40.5053C8.42807 41.4533 10.1579 42.6149 11.7884 43.7314L11.9296 43.5251ZM7.14514 40.2973C6.25198 39.7017 5.48094 39.1907 4.93323 38.8287L4.79538 39.0373C5.34287 39.3992 6.11361 39.9099 7.00644 40.5053L7.14514 40.2973ZM4.93323 38.8287C4.75644 38.7119 4.60292 38.6105 4.47607 38.5269L4.33843 38.7356C4.46521 38.8192 4.61866 38.9205 4.79537 39.0373L4.93323 38.8287ZM4.29837 38.5698L1.48025 43.5668L1.69801 43.6896L4.51613 38.6926L4.29837 38.5698ZM1.58913 43.7532H11.859V43.5032H1.58913V43.7532ZM35.8602 28.3355C37.1031 29.3536 38.107 30.3723 38.8427 31.196L39.0291 31.0295C38.2866 30.1981 37.2735 29.17 36.0186 28.1421L35.8602 28.3355ZM28.2165 24.2677C31.2822 25.09 33.868 26.7037 35.8602 28.3355L36.0186 28.1421C34.0083 26.4955 31.3912 24.8604 28.2813 24.0263L28.2165 24.2677ZM31.5396 30.3738C31.5396 27.7627 30.2702 25.4465 28.3218 24.0455L28.1759 24.2485C30.0605 25.6036 31.2896 27.845 31.2896 30.3738H31.5396ZM23.9737 38.1054C28.1654 38.1054 31.5396 34.6309 31.5396 30.3738H31.2896C31.2896 34.4985 28.0217 37.8554 23.9737 37.8554V38.1054ZM16.4078 30.3738C16.4078 34.6309 19.7824 38.1054 23.9737 38.1054V37.8554C19.9261 37.8554 16.6578 34.4985 16.6578 30.3738H16.4078ZM19.5832 24.0763C17.6588 25.4803 16.4078 27.7817 16.4078 30.3738H16.6578C16.6578 27.8635 17.8691 25.6363 19.7305 24.2783L19.5832 24.0763ZM12.1567 28.3355C14.125 26.7234 16.6726 25.1289 19.6901 24.2978L19.6237 24.0568C16.5628 24.8998 13.9845 26.5153 11.9983 28.1421L12.1567 28.3355ZM9.09894 31.2807C9.84086 30.4428 10.8708 29.3888 12.1567 28.3355L11.9983 28.1421C10.7001 29.2055 9.66059 30.2692 8.91176 31.115L9.09894 31.2807ZM9.44551 31.38L9.08178 31.099L8.92893 31.2968L9.29265 31.5778L9.44551 31.38ZM11.4033 32.8909C10.6116 32.2804 9.9296 31.7539 9.44549 31.38L9.29267 31.5778C9.77682 31.9518 10.4589 32.4783 11.2506 33.0888L11.4033 32.8909ZM16.762 37.0114C15.0084 35.6685 12.9867 34.1119 11.4033 32.8909L11.2506 33.0888C12.8342 34.3099 14.856 35.8667 16.61 37.2098L16.762 37.0114ZM24.0638 39.7886C22.2592 39.773 19.5214 39.1239 16.762 37.0113L16.61 37.2099C19.4131 39.3558 22.2036 40.0226 24.0616 40.0385L24.0638 39.7886ZM31.3638 37.0113C28.6044 39.1239 25.867 39.773 24.0616 39.7886L24.0638 40.0385C25.9226 40.0226 28.7127 39.3558 31.5158 37.2098L31.3638 37.0113ZM36.7109 32.7706C35.1287 34.0554 33.1116 35.673 31.3638 37.0113L31.5158 37.2098C33.2664 35.8693 35.2857 34.2499 36.8685 32.9647L36.7109 32.7706ZM38.6662 31.1728C38.1827 31.5705 37.5015 32.1286 36.7109 32.7706L36.8685 32.9647C37.6596 32.3223 38.3412 31.7638 38.825 31.3659L38.6662 31.1728ZM38.8565 31.0163L38.6662 31.1729L38.825 31.3659L39.0153 31.2093L38.8565 31.0163ZM22.0159 30.3739C22.0159 29.2461 22.9052 28.3554 23.9739 28.3554V28.1054C22.762 28.1054 21.7659 29.1132 21.7659 30.3739H22.0159ZM23.9739 32.3923C22.9052 32.3923 22.0159 31.5016 22.0159 30.3739H21.7659C21.7659 31.6345 22.762 32.6423 23.9739 32.6423V32.3923ZM25.9318 30.3739C25.9318 31.5016 25.0425 32.3923 23.9739 32.3923V32.6423C25.1857 32.6423 26.1818 31.6345 26.1818 30.3739H25.9318ZM23.9739 28.3554C25.0425 28.3554 25.9318 29.2461 25.9318 30.3739H26.1818C26.1818 29.1132 25.1857 28.1054 23.9739 28.1054V28.3554ZM23.9739 27.1772C22.2287 27.1772 20.8377 28.6216 20.8377 30.3739H21.0877C21.0877 28.7538 22.3725 27.4272 23.9739 27.4272V27.1772ZM27.11 30.3739C27.11 28.6216 25.7191 27.1772 23.9739 27.1772V27.4272C25.5752 27.4272 26.86 28.7538 26.86 30.3739H27.11ZM23.9739 33.5705C25.7191 33.5705 27.11 32.1261 27.11 30.3739H26.86C26.86 31.9939 25.5752 33.3205 23.9739 33.3205V33.5705ZM20.8377 30.3739C20.8377 32.1261 22.2287 33.5705 23.9739 33.5705V33.3205C22.3725 33.3205 21.0877 31.9939 21.0877 30.3739H20.8377ZM23.9737 23.5705C20.3156 23.5705 17.336 26.6091 17.336 30.3738H17.586C17.586 26.7417 20.459 23.8205 23.9737 23.8205V23.5705ZM30.6113 30.3738C30.6113 26.6091 27.6322 23.5705 23.9737 23.5705V23.8205C27.4887 23.8205 30.3613 26.7417 30.3613 30.3738H30.6113ZM23.9737 37.1772C27.6322 37.1772 30.6113 34.139 30.6113 30.3738H30.3613C30.3613 34.0064 27.4888 36.9272 23.9737 36.9272V37.1772ZM17.336 30.3738C17.336 34.139 20.3155 37.1772 23.9737 37.1772V36.9272C20.459 36.9272 17.586 34.0064 17.586 30.3738H17.336Z" fill="#2C0F5C"/>
</g>
<defs>
<clipPath id="clip0_260_144">
<rect width="48" height="48" fill="white"/>
</clipPath>
</defs>
</svg>
