<svg width="96" height="96" viewBox="0 0 96 96" fill="none" xmlns="http://www.w3.org/2000/svg">
<path fill-rule="evenodd" clip-rule="evenodd" d="M68.0827 39.6099L48.0004 4L27.7359 39.9324C23.9137 41.6302 20.5443 43.64 17.6808 45.6451C14.0551 48.1838 11.229 50.7225 9.30711 52.6289C8.3458 53.5825 7.60963 54.3789 7.11168 54.9396C6.86267 55.22 6.67314 55.4415 6.54473 55.5944C6.48052 55.6708 6.43158 55.7301 6.39811 55.771L6.35954 55.8184L6.34901 55.8315L6.34495 55.8365C6.34461 55.837 6.34433 55.8373 7.06982 56.4163C7.79531 56.9953 7.79526 56.9954 7.79517 56.9955L7.79648 56.9939L7.80345 56.9852L7.83475 56.9468C7.86329 56.9119 7.90716 56.8587 7.96614 56.7885C8.08412 56.6481 8.26253 56.4395 8.49974 56.1724C8.97421 55.6381 9.68353 54.8704 10.6145 53.9469C12.4772 52.0992 15.2228 49.6325 18.7456 47.1658C20.9299 45.6363 23.4087 44.1098 26.1575 42.7313L0 89.1129H96L82.2735 64.773C82.2947 64.7581 82.2946 64.7579 82.2945 64.7577L82.292 64.754L82.2833 64.7415L82.2517 64.6961C82.2268 64.6605 82.1915 64.6104 82.1458 64.5466L69.6285 42.351C72.6873 43.8262 75.4263 45.4942 77.8136 47.1658C81.3365 49.6325 84.0821 52.0992 85.9448 53.9469C86.8758 54.8704 87.5851 55.6381 88.0596 56.1724C88.2968 56.4395 88.4752 56.6481 88.5932 56.7885C88.6522 56.8587 88.6961 56.9119 88.7246 56.9468L88.7559 56.9852L88.7629 56.9939L88.7643 56.9956C88.7642 56.9955 88.764 56.9953 89.4895 56.4163C90.215 55.8373 90.2137 55.8357 90.2134 55.8353L90.2103 55.8315L90.1998 55.8184L90.1612 55.771C90.1278 55.7301 90.0788 55.6708 90.0146 55.5944C89.8862 55.4415 89.6967 55.22 89.4477 54.9396C88.9497 54.3789 88.2135 53.5825 87.2522 52.6289C85.3303 50.7225 82.5042 48.1838 78.8784 45.6451C75.8313 43.5115 72.2115 41.3726 68.0827 39.6099ZM65.3398 38.5254L48.0004 7.7792L30.5123 38.7885C35.7346 36.8031 41.6953 35.4663 48.2793 35.4663C54.5682 35.4663 60.2885 36.6859 65.3398 38.5254ZM66.7778 41.0753C61.4104 38.8581 55.1962 37.3228 48.2793 37.3228C41.0454 37.3228 34.5802 39.0021 29.0483 41.3845L19.7052 57.9514C20.6849 57.0085 21.778 56.0251 22.9789 55.0415C28.8833 50.2052 37.464 45.3081 48.0175 45.3081C58.5705 45.3081 67.151 50.2052 73.0554 55.0415C74.2261 56.0004 75.2944 56.9592 76.2551 57.8804L66.7778 41.0753ZM80.5793 65.5481C80.4854 65.4184 80.3558 65.2423 80.1914 65.0257C79.9174 64.6648 79.5468 64.1916 79.0836 63.6327L78.6706 63.9726C77.701 64.77 76.3351 65.8892 74.7497 67.1766C71.5803 69.7501 67.5278 73.0001 64.0084 75.6951C58.1802 80.1571 52.3191 81.6201 48.2606 81.6821V81.6842H47.9905V81.6821C43.9335 81.6201 38.0718 80.1571 32.2436 75.6952C28.7335 73.0073 24.688 69.8924 21.5205 67.4499C19.9366 66.2285 18.5721 65.1751 17.6036 64.4271L16.8046 63.8097C16.4089 64.2919 16.0874 64.7036 15.8428 65.0257C15.6503 65.2792 15.5056 65.4772 15.4099 65.6104C15.3621 65.677 15.3266 65.7273 15.3035 65.7603L15.2917 65.7773L9.7286 75.6416C10.0018 75.8217 10.3464 76.0491 10.7521 76.3173C11.849 77.0423 13.3929 78.0654 15.1814 79.258C18.6847 81.5942 23.1299 84.583 26.9923 87.2565H69.2763C73.1347 84.5721 77.5122 81.5845 80.9488 79.252C82.703 78.0614 84.2127 77.0411 85.2838 76.3184C85.6767 76.0533 86.0107 75.8282 86.276 75.6495L80.5793 65.5481ZM87.1908 77.2716C86.948 77.4352 86.6564 77.6318 86.3221 77.8573C85.2521 78.5793 83.7439 79.5986 81.9913 80.7881C79.1973 82.6844 75.7837 85.0122 72.5351 87.2565H92.8218L87.1908 77.2716ZM23.7179 87.2565C20.4557 85.0227 16.9951 82.6988 14.1514 80.8026C12.3654 79.6116 10.8237 78.5899 9.72845 77.866C9.375 77.6324 9.06807 77.4298 8.81446 77.2625L3.17826 87.2565H23.7179ZM77.872 62.2255C76.3937 60.5705 74.3768 58.5236 71.879 56.4776C67.8764 53.1991 62.6736 49.9504 56.4978 48.2939C60.3309 51.0501 62.8293 55.6076 62.8293 60.7477C62.8293 69.1294 56.1873 75.9608 47.9475 75.9608C39.7086 75.9608 33.0658 69.1294 33.0658 60.7477C33.0658 55.6451 35.5282 51.1166 39.314 48.3545C33.2356 50.0287 28.1096 53.2386 24.1552 56.4776C21.5711 58.5943 19.5016 60.712 18.0108 62.3957L18.7383 62.9578C19.7066 63.7057 21.0707 64.7588 22.6541 65.9798C25.821 68.4219 29.8645 71.5352 33.3722 74.2212C38.9347 78.4797 44.463 79.7956 48.1256 79.8271C51.7897 79.7956 57.3172 78.4797 62.8798 74.2212C66.3781 71.5423 70.4145 68.3054 73.5795 65.7354C75.1613 64.451 76.5241 63.3343 77.4913 62.5388L77.872 62.2255ZM47.9479 56.4608C45.6674 56.4608 43.782 58.3593 43.782 60.7477C43.782 63.1361 45.6674 65.0346 47.9479 65.0346C50.2283 65.0346 52.1138 63.1361 52.1138 60.7477C52.1138 58.3593 50.2283 56.4608 47.9479 56.4608ZM41.9255 60.7477C41.9255 57.3754 44.6013 54.6044 47.9479 54.6044C51.2945 54.6044 53.9702 57.3754 53.9702 60.7477C53.9702 64.12 51.2945 66.891 47.9479 66.891C44.6013 66.891 41.9255 64.12 41.9255 60.7477ZM34.9222 60.7477C34.9222 53.3508 40.7747 47.391 47.9475 47.391C55.1211 47.391 60.9728 53.3508 60.9728 60.7477C60.9728 68.1454 55.1211 74.1044 47.9475 74.1044C40.7747 74.1044 34.9222 68.1454 34.9222 60.7477Z" fill="#2C0F5C"/>
</svg>
