<svg width="64" height="64" viewBox="0 0 64 64" fill="none" xmlns="http://www.w3.org/2000/svg">
<path fill-rule="evenodd" clip-rule="evenodd" d="M45.3885 26.74L32.0003 3L18.4906 26.955C15.9425 28.0869 13.6962 29.4267 11.7873 30.7634C9.37008 32.4559 7.48603 34.1484 6.20479 35.4193C5.56392 36.055 5.07314 36.586 4.74117 36.9598C4.57517 37.1467 4.44881 37.2944 4.3632 37.3963C4.3204 37.4472 4.28777 37.4868 4.26546 37.514L4.23975 37.5456L4.23272 37.5543L4.23002 37.5577C4.22979 37.558 4.2296 37.5582 4.71326 37.9442C5.19692 38.3302 5.19689 38.3303 5.19683 38.3304L5.1977 38.3293L5.20235 38.3235L5.22321 38.2979C5.24224 38.2746 5.27149 38.2392 5.31081 38.1924C5.38946 38.0988 5.5084 37.9597 5.66654 37.7816C5.98285 37.4254 6.45573 36.9136 7.07638 36.298C8.31818 35.0662 10.1486 33.4217 12.4971 31.7772C13.9533 30.7576 15.6058 29.7399 17.4383 28.8209L0 59.7419H64L54.849 43.5153C54.8632 43.5054 54.8631 43.5052 54.863 43.5052L54.8613 43.5027L54.8555 43.4943L54.8345 43.4641C54.8179 43.4403 54.7943 43.4069 54.7638 43.3644L46.419 28.5673C48.4582 29.5508 50.2843 30.6628 51.8758 31.7772C54.2244 33.4217 56.0548 35.0662 57.2966 36.298C57.9173 36.9136 58.3901 37.4254 58.7064 37.7816C58.8646 37.9597 58.9835 38.0988 59.0622 38.1924C59.1015 38.2392 59.1307 38.2746 59.1498 38.2979L59.1706 38.3235L59.1753 38.3293L59.1762 38.3305C59.1762 38.3304 59.1761 38.3302 59.6597 37.9442C60.1434 37.5582 60.1425 37.5572 60.1423 37.5569L60.1403 37.5543L60.1332 37.5456L60.1075 37.514L60.0672 37.4651C60.0507 37.4452 60.0316 37.4222 60.0098 37.3963C59.9242 37.2944 59.7978 37.1467 59.6318 36.9598C59.2999 36.586 58.8091 36.055 58.1682 35.4193C56.8869 34.1484 55.0029 32.4559 52.5857 30.7634C50.5543 29.341 48.141 27.9151 45.3885 26.74ZM43.5599 26.017L32.0003 5.51946L20.3415 26.1924C23.8231 24.8688 27.7969 23.9776 32.1862 23.9776C36.3789 23.9776 40.1924 24.7906 43.5599 26.017ZM44.5185 27.7169C40.9403 26.2388 36.7975 25.2152 32.1862 25.2152C27.3636 25.2152 23.0534 26.3348 19.3655 27.9231L13.1368 38.9676C13.7899 38.339 14.5187 37.6834 15.3192 37.0276C19.2556 33.8035 24.976 30.5387 32.0116 30.5387C39.047 30.5387 44.7673 33.8035 48.7036 37.0277C49.4841 37.667 50.1963 38.3061 50.8367 38.9202L44.5185 27.7169ZM53.7195 44.0321C53.6569 43.9456 53.5705 43.8282 53.4609 43.6838C53.2782 43.4432 53.0312 43.1277 52.7224 42.7551L52.447 42.9817C51.8006 43.5134 50.89 44.2595 49.8331 45.1177C47.7202 46.8334 45.0185 49.0001 42.6722 50.7968C38.7867 53.7714 34.8793 54.7467 32.1737 54.7881V54.7894H31.9936V54.788C29.2889 54.7467 25.3811 53.7714 21.4957 50.7968C19.1556 49.0049 16.4586 46.9283 14.3469 45.2999C13.291 44.4857 12.3814 43.7834 11.7357 43.2847L11.203 42.8732C10.9392 43.1946 10.7249 43.469 10.5619 43.6838C10.4335 43.8528 10.337 43.9848 10.2733 44.0736C10.2414 44.118 10.2177 44.1515 10.2023 44.1735L10.1945 44.1849L6.48573 50.7611C6.66786 50.8811 6.89758 51.0327 7.16807 51.2115C7.89931 51.6949 8.92859 52.3769 10.1209 53.172C12.4565 54.7294 15.4199 56.722 17.9949 58.5043H46.1842C48.7564 56.7147 51.6748 54.723 53.9659 53.168C55.1353 52.3742 56.1418 51.694 56.8559 51.2122C57.1178 51.0355 57.3404 50.8855 57.5173 50.7663L53.7195 44.0321ZM58.1272 51.8477C57.9653 51.9568 57.771 52.0878 57.5481 52.2382C56.8347 52.7195 55.8293 53.399 54.6609 54.192C52.7982 55.4563 50.5224 57.0082 48.3567 58.5043H61.8812L58.1272 51.8477ZM15.8119 58.5043C13.6371 57.0151 11.3301 55.4659 9.43429 54.2017C8.24362 53.4077 7.21577 52.7266 6.48564 52.244C6.25 52.0882 6.04538 51.9532 5.87631 51.8417L2.11884 58.5043H15.8119ZM51.9146 41.817C50.9291 40.7136 49.5845 39.349 47.9193 37.9851C45.2509 35.7994 41.7823 33.6336 37.6651 32.5293C40.2205 34.3667 41.8861 37.4051 41.8861 40.8318C41.8861 46.4196 37.4581 50.9739 31.965 50.9739C26.4724 50.9739 22.0438 46.4196 22.0438 40.8318C22.0438 37.4301 23.6854 34.4111 26.2092 32.5697C22.157 33.6858 18.7397 35.8258 16.1035 37.9851C14.3807 39.3962 13.001 40.808 12.0072 41.9305L12.4922 42.3052C13.1377 42.8038 14.0471 43.5058 15.1027 44.3198C17.214 45.9479 19.9096 48.0235 22.2481 49.8141C25.9564 52.6531 29.642 53.5304 32.0837 53.5514C34.5264 53.5304 38.2114 52.6531 41.9198 49.8141C44.252 48.0282 46.9429 45.8702 49.0529 44.1569C50.1075 43.3007 51.016 42.5562 51.6608 42.0259L51.9146 41.817ZM31.9652 37.9739C30.4449 37.9739 29.1879 39.2396 29.1879 40.8318C29.1879 42.424 30.4449 43.6897 31.9652 43.6897C33.4855 43.6897 34.7425 42.424 34.7425 40.8318C34.7425 39.2396 33.4855 37.9739 31.9652 37.9739ZM27.9503 40.8318C27.9503 38.5836 29.7341 36.7363 31.9652 36.7363C34.1963 36.7363 35.9801 38.5836 35.9801 40.8318C35.9801 43.08 34.1963 44.9273 31.9652 44.9273C29.7341 44.9273 27.9503 43.08 27.9503 40.8318ZM23.2814 40.8318C23.2814 35.9005 27.1831 31.9273 31.965 31.9273C36.7474 31.9273 40.6485 35.9005 40.6485 40.8318C40.6485 45.7636 36.7474 49.7363 31.965 49.7363C27.1831 49.7363 23.2814 45.7636 23.2814 40.8318Z" fill="#2C0F5C"/>
</svg>
