<svg width="32" height="32" viewBox="0 0 32 32" fill="none" xmlns="http://www.w3.org/2000/svg">
<g clip-path="url(#clip0_260_163)">
<path fill-rule="evenodd" clip-rule="evenodd" d="M22.6942 13.8699L16.0001 2L9.24525 13.9776C7.97125 14.5435 6.84818 15.2134 5.89371 15.8817C4.68512 16.728 3.74309 17.5742 3.10247 18.2097C2.78203 18.5275 2.53664 18.793 2.37066 18.9799C2.28766 19.0734 2.22448 19.1472 2.18168 19.1981C2.16027 19.2236 2.14396 19.2434 2.1328 19.257L2.11995 19.2728L2.11644 19.2772L2.11508 19.2789C2.11497 19.279 2.11488 19.2791 2.35671 19.4721C2.59854 19.6651 2.59852 19.6651 2.59849 19.6652L2.59893 19.6646L2.60125 19.6617L2.61168 19.6489C2.6212 19.6373 2.63582 19.6196 2.65548 19.5962C2.69481 19.5494 2.75428 19.4798 2.83335 19.3908C2.9915 19.2127 3.22794 18.9568 3.53826 18.649C4.15916 18.0331 5.07437 17.2108 6.24864 16.3886C6.97671 15.8788 7.80291 15.37 8.71911 14.9105L0 30.371H32L27.4245 22.2577C27.4316 22.2527 27.4315 22.2526 27.4315 22.2526L27.4307 22.2513L27.4278 22.2472L27.4172 22.232C27.4089 22.2202 27.3972 22.2034 27.3819 22.1822L23.2095 14.7836C24.2291 15.2754 25.1422 15.8314 25.938 16.3886C27.1123 17.2108 28.0275 18.0331 28.6484 18.649C28.9587 18.9568 29.1951 19.2127 29.3533 19.3908C29.4324 19.4798 29.4918 19.5494 29.5312 19.5962C29.5508 19.6196 29.5654 19.6373 29.575 19.6489L29.5854 19.6617L29.5877 19.6646L29.5882 19.6652C29.5882 19.6652 29.5881 19.6651 29.8299 19.4721C30.0718 19.2791 30.0713 19.2786 30.0712 19.2784L30.0702 19.2772L30.0667 19.2728L30.0538 19.257C30.0427 19.2434 30.0264 19.2236 30.005 19.1981C29.9622 19.1472 29.899 19.0733 29.816 18.9799C29.65 18.793 29.4046 18.5275 29.0842 18.2097C28.4435 17.5742 27.5015 16.728 26.2929 15.8817C25.2772 15.1705 24.0705 14.4575 22.6942 13.8699ZM21.7799 13.5084L16.0001 3.25973L10.1707 13.5962C11.9115 12.9344 13.8985 12.4888 16.0932 12.4888C18.1895 12.4888 20.0962 12.8953 21.7799 13.5084ZM22.2592 14.3584C20.4701 13.6194 18.3988 13.1076 16.0932 13.1076C13.6818 13.1076 11.5267 13.6674 9.68272 14.4616L6.56841 19.9838C6.89496 19.6695 7.25933 19.3417 7.65962 19.0138C9.62778 17.4017 12.488 15.7694 16.0058 15.7694C19.5235 15.7694 22.3837 17.4017 24.3518 19.0138C24.742 19.3335 25.0981 19.6531 25.4183 19.9601L22.2592 14.3584ZM26.8598 22.516C26.8285 22.4728 26.7853 22.4141 26.7305 22.3419C26.6391 22.2216 26.5156 22.0639 26.3612 21.8776L26.2236 21.9909C25.9004 22.2567 25.4451 22.6297 24.9166 23.0589C23.8602 23.9167 22.5093 25 21.3362 25.8984C19.3934 27.3857 17.4397 27.8734 16.0869 27.894V27.8947H15.9969V27.894C14.6445 27.8734 12.6906 27.3857 10.7479 25.8984C9.57788 25.0024 8.22937 23.9641 7.17353 23.15C6.64559 22.7428 6.19075 22.3917 5.8679 22.1424L5.60154 21.9366C5.46963 22.0973 5.36246 22.2345 5.28093 22.3419C5.21676 22.4264 5.16852 22.4924 5.13664 22.5368C5.12071 22.559 5.10886 22.5758 5.10117 22.5868L5.09723 22.5924L3.24287 25.8805C3.33393 25.9406 3.44879 26.0164 3.58403 26.1058C3.94966 26.3474 4.4643 26.6885 5.06046 27.086C6.22823 27.8647 7.70996 28.861 8.99743 29.7522H23.0921C24.3782 28.8574 25.8374 27.8615 26.9829 27.084C27.5677 26.6871 28.0709 26.347 28.4279 26.1061C28.5589 26.0178 28.6702 25.9427 28.7587 25.8832L26.8598 22.516ZM29.0636 26.4239C28.9827 26.4784 28.8855 26.5439 28.774 26.6191C28.4174 26.8597 27.9146 27.1995 27.3304 27.596C26.3991 28.2281 25.2612 29.0041 24.1783 29.7522H30.9406L29.0636 26.4239ZM7.90596 29.7522C6.81856 29.0076 5.66504 28.2329 4.71715 27.6009C4.12181 27.2039 3.60789 26.8633 3.24282 26.622C3.125 26.5441 3.02269 26.4766 2.93815 26.4208L1.05942 29.7522H7.90596ZM25.9573 21.4085C25.4646 20.8568 24.7923 20.1745 23.9597 19.4925C22.6255 18.3997 20.8912 17.3168 18.8327 16.7647C20.1104 17.6834 20.9431 19.2026 20.9431 20.9159C20.9431 23.7098 18.7291 25.9869 15.9826 25.9869C13.2363 25.9869 11.022 23.7098 11.022 20.9159C11.022 19.215 11.8428 17.7055 13.1047 16.7848C11.0786 17.3429 9.36989 18.4129 8.05174 19.4925C7.19036 20.1981 6.50054 20.904 6.00363 21.4652L6.24615 21.6526C6.56891 21.9019 7.02361 22.2529 7.55141 22.6599C8.60707 23.474 9.9549 24.5117 11.1241 25.4071C12.9783 26.8266 14.8211 27.2652 16.0419 27.2757C17.2633 27.2652 19.1058 26.8266 20.96 25.4071C22.1261 24.5141 23.4715 23.4351 24.5266 22.5785C25.0538 22.1503 25.5081 21.7781 25.8305 21.5129L25.9573 21.4085ZM15.9827 19.4869C15.2225 19.4869 14.594 20.1198 14.594 20.9159C14.594 21.712 15.2225 22.3449 15.9827 22.3449C16.7428 22.3449 17.3713 21.712 17.3713 20.9159C17.3713 20.1198 16.7428 19.4869 15.9827 19.4869ZM13.9752 20.9159C13.9752 19.7918 14.8671 18.8681 15.9827 18.8681C17.0982 18.8681 17.9901 19.7918 17.9901 20.9159C17.9901 22.04 17.0982 22.9637 15.9827 22.9637C14.8671 22.9637 13.9752 22.04 13.9752 20.9159ZM11.6408 20.9159C11.6408 18.4503 13.5916 16.4637 15.9826 16.4637C18.3738 16.4637 20.3243 18.4503 20.3243 20.9159C20.3243 23.3818 18.3738 25.3681 15.9826 25.3681C13.5916 25.3681 11.6408 23.3818 11.6408 20.9159Z" fill="#2C0F5C"/>
<path d="M16.0001 2L16.109 1.9386L16.0001 1.74553L15.8913 1.9386L16.0001 2ZM22.6942 13.8699L22.5853 13.9313L22.6062 13.9683L22.6451 13.9849L22.6942 13.8699ZM9.24525 13.9776L9.296 14.0918L9.33381 14.075L9.35413 14.039L9.24525 13.9776ZM5.89371 15.8817L5.82201 15.7793L5.89371 15.8817ZM3.10247 18.2097L3.1905 18.2984L3.10247 18.2097ZM2.37066 18.9799L2.2772 18.8969L2.37066 18.9799ZM2.18168 19.1981L2.27738 19.2786L2.27739 19.2785L2.18168 19.1981ZM2.1328 19.257L2.03607 19.1778L2.03585 19.1781L2.1328 19.257ZM2.11995 19.2728L2.02299 19.1939L2.02261 19.1944L2.11995 19.2728ZM2.11644 19.2772L2.0191 19.1987L2.0189 19.199L2.11644 19.2772ZM2.11508 19.2789L2.21258 19.3571L2.21263 19.357L2.11508 19.2789ZM2.35671 19.4721L2.43468 19.3744L2.43468 19.3744L2.35671 19.4721ZM2.59849 19.6652L2.50096 19.587L2.69593 19.7435L2.59849 19.6652ZM2.59893 19.6646L2.50159 19.5862L2.50139 19.5865L2.59893 19.6646ZM2.60125 19.6617L2.5043 19.5828L2.50391 19.5833L2.60125 19.6617ZM2.61168 19.6489L2.51495 19.5698L2.51473 19.57L2.61168 19.6489ZM2.65548 19.5962L2.75119 19.6766L2.75119 19.6766L2.65548 19.5962ZM2.83335 19.3908L2.92681 19.4738L2.83335 19.3908ZM3.53826 18.649L3.6263 18.7377H3.6263L3.53826 18.649ZM6.24864 16.3886L6.32034 16.491L6.24864 16.3886ZM8.71911 14.9105L8.82798 14.9719L9.02918 14.6151L8.66307 14.7988L8.71911 14.9105ZM0 30.371L-0.108879 30.3096L-0.214003 30.496H0V30.371ZM32 30.371V30.496H32.214L32.1089 30.3096L32 30.371ZM27.4245 22.2577L27.3528 22.1553L27.2599 22.2203L27.3156 22.3191L27.4245 22.2577ZM27.4315 22.2526L27.5348 22.1822L27.5346 22.1819L27.4315 22.2526ZM27.4307 22.2513L27.5338 22.1807L27.5336 22.1804L27.4307 22.2513ZM27.4278 22.2472L27.5307 22.1763L27.5304 22.1758L27.4278 22.2472ZM27.4172 22.232L27.5199 22.1606L27.5197 22.1604L27.4172 22.232ZM27.3819 22.1822L27.2724 22.244L27.2803 22.255L27.3819 22.1822ZM23.2095 14.7836L23.2638 14.671L22.9048 14.4979L23.1006 14.845L23.2095 14.7836ZM25.938 16.3886L25.8663 16.491L25.938 16.3886ZM28.6484 18.649L28.5603 18.7377L28.6484 18.649ZM29.3533 19.3908L29.4468 19.3078L29.3533 19.3908ZM29.5312 19.5962L29.6269 19.5158H29.6269L29.5312 19.5962ZM29.575 19.6489L29.6719 19.57L29.6717 19.5698L29.575 19.6489ZM29.5854 19.6617L29.6827 19.5833L29.6823 19.5828L29.5854 19.6617ZM29.5877 19.6646L29.6852 19.5864L29.6851 19.5862L29.5877 19.6646ZM29.5882 19.6652L29.4933 19.7466L29.6856 19.5869L29.5882 19.6652ZM29.8299 19.4721L29.752 19.3744L29.752 19.3744L29.8299 19.4721ZM30.0712 19.2784L30.1695 19.2012L30.1688 19.2003L30.0712 19.2784ZM30.0702 19.2772L30.1678 19.199L30.1675 19.1987L30.0702 19.2772ZM30.0667 19.2728L30.164 19.1944L30.1637 19.1939L30.0667 19.2728ZM30.0538 19.257L30.1508 19.1781L30.1506 19.1778L30.0538 19.257ZM30.005 19.1981L29.9093 19.2785L29.9093 19.2786L30.005 19.1981ZM29.816 18.9799L29.7225 19.0629V19.0629L29.816 18.9799ZM29.0842 18.2097L29.1722 18.1209L29.0842 18.2097ZM26.2929 15.8817L26.2212 15.9841L26.2929 15.8817ZM21.7799 13.5084L21.7371 13.6259L22.0549 13.7416L21.8888 13.447L21.7799 13.5084ZM16.0001 3.25973L16.109 3.19833L16.0001 3.00527L15.8913 3.19833L16.0001 3.25973ZM10.1707 13.5962L10.0619 13.5348L9.89207 13.8359L10.2152 13.7131L10.1707 13.5962ZM22.2592 14.3584L22.3681 14.297L22.3469 14.2594L22.307 14.2429L22.2592 14.3584ZM9.68272 14.4616L9.63328 14.3468L9.59456 14.3634L9.57384 14.4002L9.68272 14.4616ZM6.56841 19.9838L6.45953 19.9224L6.65509 20.0738L6.56841 19.9838ZM7.65962 19.0138L7.58042 18.9171L7.65962 19.0138ZM24.3518 19.0138L24.2726 19.1105L24.3518 19.0138ZM25.4183 19.9601L25.3318 20.0503L25.5272 19.8987L25.4183 19.9601ZM26.8598 22.516L26.9693 22.4542L26.961 22.4427L26.8598 22.516ZM26.7305 22.3419L26.83 22.2663L26.7305 22.3419ZM26.3612 21.8776L26.4574 21.7978L26.378 21.7019L26.2818 21.7811L26.3612 21.8776ZM26.2236 21.9909L26.303 22.0874L26.303 22.0874L26.2236 21.9909ZM24.9166 23.0589L24.8378 22.9618L24.9166 23.0589ZM21.3362 25.8984L21.4122 25.9976L21.4122 25.9976L21.3362 25.8984ZM16.0869 27.894L16.085 27.769L15.9619 27.7709V27.894H16.0869ZM16.0869 27.8947V28.0197H16.2119V27.8947H16.0869ZM15.9969 27.8947H15.8719V28.0197H15.9969V27.8947ZM15.9969 27.894H16.1219V27.7709L15.9988 27.769L15.9969 27.894ZM10.7479 25.8984L10.6719 25.9976L10.6719 25.9977L10.7479 25.8984ZM7.17353 23.15L7.24987 23.051L7.17353 23.15ZM5.8679 22.1424L5.79148 22.2413L5.79149 22.2413L5.8679 22.1424ZM5.60154 21.9366L5.67796 21.8376L5.58191 21.7634L5.50491 21.8573L5.60154 21.9366ZM5.28093 22.3419L5.18137 22.2663H5.18137L5.28093 22.3419ZM5.13664 22.5368L5.03511 22.4639L5.03511 22.4639L5.13664 22.5368ZM5.10117 22.5868L4.99874 22.5151L4.99857 22.5154L5.10117 22.5868ZM5.09723 22.5924L4.99417 22.5207L4.98835 22.531L5.09723 22.5924ZM3.24287 25.8805L3.13399 25.8191L3.0767 25.9207L3.17406 25.9849L3.24287 25.8805ZM3.58403 26.1058L3.65296 26.0015H3.65296L3.58403 26.1058ZM5.06046 27.086L4.99111 27.19H4.99111L5.06046 27.086ZM8.99743 29.7522L8.92629 29.8549L8.95839 29.8772H8.99743V29.7522ZM23.0921 29.7522V29.8772H23.1313L23.1635 29.8548L23.0921 29.7522ZM26.9829 27.084L27.0531 27.1874L26.9829 27.084ZM28.4279 26.1061L28.4979 26.2097L28.4279 26.1061ZM28.7587 25.8832L28.8285 25.9868L28.9243 25.9223L28.8675 25.8218L28.7587 25.8832ZM28.774 26.6191L28.7041 26.5155L28.774 26.6191ZM29.0636 26.4239L29.1725 26.3625L29.106 26.2446L28.9938 26.3202L29.0636 26.4239ZM27.3304 27.596L27.4006 27.6994L27.3304 27.596ZM24.1783 29.7522L24.1073 29.6493L23.7775 29.8772H24.1783V29.7522ZM30.9406 29.7522V29.8772H31.1546L31.0495 29.6908L30.9406 29.7522ZM7.90596 29.7522V29.8772H8.30976L7.97658 29.649L7.90596 29.7522ZM4.71715 27.6009L4.7865 27.4969H4.78649L4.71715 27.6009ZM3.24282 26.622L3.31174 26.5177V26.5177L3.24282 26.622ZM2.93815 26.4208L3.00698 26.3165L2.89511 26.2427L2.82928 26.3594L2.93815 26.4208ZM1.05942 29.7522L0.950543 29.6908L0.845418 29.8772H1.05942V29.7522ZM23.9597 19.4925L24.0389 19.3958L23.9597 19.4925ZM25.9573 21.4085L26.0368 21.505L26.1373 21.4223L26.0506 21.3253L25.9573 21.4085ZM18.8327 16.7647L18.8651 16.6439L18.7597 16.8661L18.8327 16.7647ZM13.1047 16.7848L13.1784 16.8858L13.0715 16.6643L13.1047 16.7848ZM8.05174 19.4925L8.13095 19.5892L8.05174 19.4925ZM6.00363 21.4652L5.91004 21.3824L5.82145 21.4824L5.9272 21.5641L6.00363 21.4652ZM6.24615 21.6526L6.16973 21.7515L6.16975 21.7515L6.24615 21.6526ZM7.55141 22.6599L7.62775 22.5609L7.55141 22.6599ZM11.1241 25.4071L11.0481 25.5063L11.0481 25.5063L11.1241 25.4071ZM16.0419 27.2757L16.0408 27.4007L16.043 27.4007L16.0419 27.2757ZM20.96 25.4071L21.036 25.5063L21.036 25.5063L20.96 25.4071ZM24.5266 22.5785L24.4478 22.4814L24.5266 22.5785ZM25.8305 21.5129L25.9099 21.6095L25.9099 21.6094L25.8305 21.5129ZM15.8913 2.0614L22.5853 13.9313L22.8031 13.8085L16.109 1.9386L15.8913 2.0614ZM9.35413 14.039L16.109 2.0614L15.8913 1.9386L9.13637 13.9162L9.35413 14.039ZM9.19451 13.8633C7.91204 14.433 6.78198 15.1071 5.82201 15.7793L5.96541 15.9841C6.91437 15.3196 8.03046 14.6539 9.296 14.0918L9.19451 13.8633ZM5.82201 15.7793C4.60649 16.6304 3.65904 17.4815 3.01444 18.1209L3.1905 18.2984C3.82714 17.6669 4.76375 16.8255 5.96541 15.9841L5.82201 15.7793ZM3.01444 18.1209C2.69196 18.4408 2.44476 18.7082 2.2772 18.8969L2.46412 19.0629C2.62853 18.8778 2.87211 18.6142 3.1905 18.2984L3.01444 18.1209ZM2.2772 18.8969C2.1934 18.9912 2.12948 19.066 2.08597 19.1177L2.27739 19.2785C2.31949 19.2284 2.38192 19.1555 2.46412 19.0629L2.2772 18.8969ZM2.08597 19.1177C2.06421 19.1436 2.04756 19.1638 2.03607 19.1778L2.22954 19.3362C2.24036 19.323 2.25633 19.3036 2.27738 19.2786L2.08597 19.1177ZM2.03585 19.1781L2.023 19.1939L2.2169 19.3517L2.22976 19.3359L2.03585 19.1781ZM2.02261 19.1944L2.0191 19.1987L2.21377 19.3556L2.21728 19.3512L2.02261 19.1944ZM2.0189 19.199L2.01754 19.2007L2.21263 19.357L2.21398 19.3553L2.0189 19.199ZM2.01759 19.2006C2.01759 19.2006 2.01733 19.2009 2.01708 19.2013C2.01682 19.2016 2.01607 19.2026 2.01558 19.2032C2.01431 19.2049 2.01227 19.2076 2.00997 19.2112C2.00522 19.2186 1.99909 19.2298 1.99489 19.2445C1.98562 19.277 1.9914 19.3052 1.99819 19.3232C2.0041 19.3388 2.0118 19.3495 2.01494 19.3537C2.01871 19.3587 2.02209 19.3625 2.02384 19.3643C2.02734 19.3681 2.03032 19.3708 2.0312 19.3716C2.03248 19.3727 2.03354 19.3737 2.03413 19.3742C2.03609 19.3758 2.03832 19.3777 2.04002 19.379C2.04414 19.3824 2.05199 19.3887 2.06704 19.4007C2.09732 19.425 2.15783 19.4733 2.27873 19.5698L2.43468 19.3744C2.31375 19.2779 2.25339 19.2297 2.22329 19.2056C2.20815 19.1935 2.20093 19.1877 2.19755 19.1849C2.19549 19.1832 2.19586 19.1835 2.1969 19.1844C2.19726 19.1847 2.19815 19.1855 2.1993 19.1865C2.20006 19.1872 2.20295 19.1898 2.2064 19.1935C2.20813 19.1954 2.21149 19.1991 2.21525 19.2041C2.21837 19.2083 2.22606 19.219 2.23197 19.2346C2.23876 19.2525 2.24454 19.2808 2.23527 19.3132C2.22733 19.341 2.21057 19.3596 2.21258 19.3571L2.01759 19.2006ZM2.27873 19.5698C2.39965 19.6663 2.46009 19.7146 2.49029 19.7387C2.50542 19.7508 2.51289 19.7567 2.51657 19.7597C2.51748 19.7604 2.51812 19.7609 2.51857 19.7613C2.51904 19.7617 2.51919 19.7618 2.51915 19.7618C2.51914 19.7618 2.51895 19.7616 2.51867 19.7614C2.51851 19.7612 2.51769 19.7606 2.51664 19.7597C2.51613 19.7592 2.51504 19.7583 2.51369 19.757C2.51278 19.7562 2.5095 19.7531 2.50568 19.7489C2.50375 19.7468 2.50007 19.7426 2.49604 19.7368C2.49258 19.7318 2.48472 19.72 2.47931 19.7029C2.47296 19.6828 2.47002 19.6553 2.4799 19.6257C2.48808 19.6011 2.50299 19.5845 2.50105 19.5869L2.69593 19.7435C2.69399 19.7459 2.7089 19.7292 2.71708 19.7047C2.72696 19.6751 2.72402 19.6476 2.71767 19.6275C2.71226 19.6104 2.7044 19.5985 2.70094 19.5936C2.6969 19.5878 2.69322 19.5836 2.69129 19.5814C2.68746 19.5772 2.68417 19.5742 2.68325 19.5733C2.68189 19.572 2.68078 19.5711 2.68023 19.5706C2.6785 19.5691 2.67693 19.5678 2.6769 19.5678C2.67602 19.5671 2.67473 19.5661 2.6729 19.5646C2.66903 19.5615 2.6614 19.5554 2.6463 19.5433C2.61606 19.5192 2.55559 19.4709 2.43468 19.3744L2.27873 19.5698ZM2.69602 19.7434L2.69646 19.7428L2.50139 19.5865L2.50096 19.587L2.69602 19.7434ZM2.69627 19.7431L2.69859 19.7402L2.50391 19.5833L2.50159 19.5862L2.69627 19.7431ZM2.6982 19.7407L2.70863 19.7278L2.51473 19.57L2.5043 19.5828L2.6982 19.7407ZM2.70842 19.7281C2.7176 19.7169 2.73188 19.6996 2.75119 19.6766L2.55977 19.5158C2.53976 19.5396 2.5248 19.5577 2.51495 19.5698L2.70842 19.7281ZM2.75119 19.6766C2.78981 19.6306 2.84853 19.5619 2.92681 19.4738L2.73988 19.3078C2.66002 19.3977 2.5998 19.4681 2.55977 19.5158L2.75119 19.6766ZM2.92681 19.4738C3.08338 19.2975 3.31802 19.0435 3.6263 18.7377L3.45023 18.5602C3.13787 18.8701 2.89962 19.1279 2.73988 19.3078L2.92681 19.4738ZM3.6263 18.7377C4.24321 18.1258 5.153 17.3084 6.32034 16.491L6.17695 16.2862C4.99574 17.1133 4.07512 17.9404 3.45023 18.5602L3.6263 18.7377ZM6.32034 16.491C7.04406 15.9843 7.86505 15.4787 8.77514 15.0222L8.66307 14.7988C7.74078 15.2613 6.90936 15.7734 6.17695 16.2862L6.32034 16.491ZM0.108879 30.4324L8.82798 14.9719L8.61023 14.8491L-0.108879 30.3096L0.108879 30.4324ZM32 30.246H0V30.496H32V30.246ZM27.3156 22.3191L31.8911 30.4324L32.1089 30.3096L27.5334 22.1963L27.3156 22.3191ZM27.3282 22.323C27.3282 22.323 27.3282 22.323 27.3282 22.3229C27.3281 22.3229 27.3281 22.3228 27.328 22.3227C27.3279 22.3225 27.3277 22.3222 27.3275 22.3219C27.327 22.3212 27.3263 22.3201 27.3254 22.3187C27.3237 22.3159 27.3211 22.3115 27.3184 22.3058C27.3127 22.2936 27.3077 22.2778 27.3067 22.2592C27.3048 22.2232 27.3188 22.1973 27.3249 22.1873C27.3315 22.1765 27.3383 22.1693 27.3408 22.1666C27.3441 22.1632 27.3468 22.1607 27.3483 22.1594C27.3512 22.1568 27.3535 22.1549 27.3542 22.1544C27.3552 22.1536 27.3559 22.1531 27.3562 22.1529C27.3568 22.1524 27.3564 22.1528 27.3528 22.1553L27.4962 22.3601C27.4997 22.3576 27.5028 22.3554 27.5052 22.3537C27.5053 22.3535 27.5098 22.3503 27.5146 22.346C27.5161 22.3447 27.5189 22.3421 27.5221 22.3387C27.5247 22.336 27.5315 22.3287 27.5381 22.3179C27.5442 22.3079 27.5582 22.282 27.5563 22.246C27.5553 22.2273 27.5503 22.2115 27.5446 22.1994C27.5419 22.1937 27.5394 22.1893 27.5376 22.1865C27.5367 22.1851 27.536 22.184 27.5355 22.1833C27.5353 22.1829 27.5351 22.1826 27.535 22.1825C27.5349 22.1824 27.5349 22.1823 27.5348 22.1822C27.5348 22.1822 27.5348 22.1822 27.5348 22.1822L27.3282 22.323ZM27.3275 22.322L27.3284 22.3232L27.5346 22.1819L27.5338 22.1807L27.3275 22.322ZM27.3248 22.3181L27.3277 22.3222L27.5336 22.1804L27.5307 22.1763L27.3248 22.3181ZM27.3146 22.3034L27.3252 22.3185L27.5304 22.1758L27.5199 22.1606L27.3146 22.3034ZM27.2803 22.255C27.2953 22.2759 27.3068 22.2922 27.3148 22.3037L27.5197 22.1604C27.5111 22.1481 27.499 22.131 27.4835 22.1094L27.2803 22.255ZM23.1006 14.845L27.273 22.2436L27.4908 22.1208L23.3184 14.7222L23.1006 14.845ZM23.1552 14.8962C24.168 15.3847 25.0752 15.9371 25.8663 16.491L26.0097 16.2862C25.2091 15.7257 24.2903 15.1661 23.2638 14.671L23.1552 14.8962ZM25.8663 16.491C27.0336 17.3084 27.9434 18.1258 28.5603 18.7377L28.7364 18.5602C28.1115 17.9404 27.1909 17.1133 26.0097 16.2862L25.8663 16.491ZM28.5603 18.7377C28.8686 19.0435 29.1033 19.2975 29.2598 19.4738L29.4468 19.3078C29.287 19.1279 29.0488 18.8701 28.7364 18.5602L28.5603 18.7377ZM29.2598 19.4738C29.3381 19.5619 29.3968 19.6306 29.4355 19.6766L29.6269 19.5158C29.5868 19.4681 29.5266 19.3977 29.4468 19.3078L29.2598 19.4738ZM29.4355 19.6766C29.4548 19.6996 29.469 19.7169 29.4782 19.7281L29.6717 19.5698C29.6618 19.5577 29.6469 19.5396 29.6269 19.5158L29.4355 19.6766ZM29.478 19.7278L29.4884 19.7407L29.6823 19.5828L29.6719 19.57L29.478 19.7278ZM29.4881 19.7402L29.4904 19.7431L29.6851 19.5862L29.6827 19.5833L29.4881 19.7402ZM29.4903 19.7429L29.4907 19.7435L29.6856 19.5869L29.6852 19.5864L29.4903 19.7429ZM29.6831 19.5839C29.6831 19.5839 29.684 19.585 29.6849 19.586C29.6858 19.5871 29.6884 19.5904 29.69 19.5927C29.6943 19.5987 29.7002 19.6082 29.705 19.6208C29.716 19.6495 29.7146 19.6771 29.7087 19.6984C29.7038 19.7164 29.6959 19.729 29.6923 19.7344C29.6882 19.7406 29.6844 19.7451 29.6824 19.7474C29.6783 19.752 29.6749 19.7553 29.6739 19.7562C29.6724 19.7576 29.6712 19.7586 29.6707 19.7591C29.6695 19.7602 29.6686 19.7609 29.6684 19.7611C29.6681 19.7614 29.6678 19.7615 29.6678 19.7616C29.6678 19.7616 29.6683 19.7612 29.6702 19.7596C29.6739 19.7567 29.6813 19.7508 29.6964 19.7387C29.7266 19.7146 29.787 19.6663 29.9079 19.5698L29.752 19.3744C29.6311 19.4709 29.5706 19.5192 29.5403 19.5434C29.5252 19.5555 29.5176 19.5616 29.5137 19.5647C29.5118 19.5662 29.5105 19.5673 29.5095 19.5681C29.5095 19.5681 29.5077 19.5695 29.5058 19.5712C29.5052 19.5717 29.504 19.5728 29.5026 19.5742C29.5016 19.5751 29.4981 19.5784 29.494 19.583C29.492 19.5853 29.4882 19.5899 29.4841 19.5961C29.4805 19.6015 29.4726 19.6141 29.4677 19.6321C29.4618 19.6533 29.4604 19.6809 29.4713 19.7096C29.4761 19.7223 29.4821 19.7317 29.4864 19.7378C29.488 19.74 29.4906 19.7433 29.4915 19.7444C29.4924 19.7455 29.4933 19.7466 29.4933 19.7466L29.6831 19.5839ZM29.9079 19.5698C30.0288 19.4733 30.0894 19.4248 30.1198 19.4003C30.1348 19.3881 30.1429 19.3815 30.1473 19.3779C30.1491 19.3764 30.1519 19.3741 30.1544 19.3718C30.1552 19.3711 30.1565 19.3699 30.1581 19.3684C30.1593 19.3672 30.1627 19.3639 30.1666 19.3592C30.1671 19.3588 30.183 19.3413 30.1911 19.3139C30.1965 19.2955 30.1994 19.2697 30.1906 19.2412C30.1828 19.2163 30.1682 19.1995 30.1695 19.2012L29.973 19.3557C29.9743 19.3574 29.9597 19.3406 29.9519 19.3157C29.943 19.2872 29.9459 19.2614 29.9514 19.243C29.9595 19.2156 29.9754 19.1982 29.9758 19.1978C29.9796 19.1932 29.983 19.19 29.984 19.189C29.9855 19.1875 29.9866 19.1865 29.9872 19.186C29.9889 19.1845 29.9898 19.1838 29.9878 19.1854C29.9848 19.1879 29.9779 19.1935 29.9629 19.2056C29.933 19.2297 29.8729 19.2779 29.752 19.3744L29.9079 19.5698ZM30.1688 19.2003L30.1678 19.199L29.9727 19.3553L29.9737 19.3566L30.1688 19.2003ZM30.1675 19.1987L30.164 19.1944L29.9694 19.3513L29.9729 19.3556L30.1675 19.1987ZM30.1637 19.1939L30.1508 19.1781L29.9569 19.3359L29.9697 19.3517L30.1637 19.1939ZM30.1506 19.1778C30.1391 19.1638 30.1224 19.1436 30.1007 19.1177L29.9093 19.2786C29.9303 19.3036 29.9463 19.323 29.9571 19.3362L30.1506 19.1778ZM30.1007 19.1177C30.0572 19.066 29.9932 18.9912 29.9094 18.8969L29.7225 19.0629C29.8047 19.1555 29.8672 19.2284 29.9093 19.2785L30.1007 19.1177ZM29.9094 18.8969C29.7419 18.7082 29.4947 18.4408 29.1722 18.1209L28.9961 18.2984C29.3145 18.6142 29.5581 18.8778 29.7225 19.0629L29.9094 18.8969ZM29.1722 18.1209C28.5276 17.4815 27.5801 16.6304 26.3646 15.7793L26.2212 15.9841C27.4229 16.8255 28.3595 17.6669 28.9961 18.2984L29.1722 18.1209ZM26.3646 15.7793C25.343 15.064 24.1288 14.3465 22.7433 13.755L22.6451 13.9849C24.0122 14.5685 25.2113 15.277 26.2212 15.9841L26.3646 15.7793ZM21.8888 13.447L16.109 3.19833L15.8913 3.32113L21.671 13.5698L21.8888 13.447ZM15.8913 3.19833L10.0619 13.5348L10.2796 13.6576L16.109 3.32114L15.8913 3.19833ZM16.0932 12.3638C13.8813 12.3638 11.8793 12.8129 10.1263 13.4794L10.2152 13.7131C11.9438 13.0559 13.9157 12.6138 16.0932 12.6138V12.3638ZM21.8227 13.391C20.1271 12.7735 18.2059 12.3638 16.0932 12.3638V12.6138C18.1731 12.6138 20.0653 13.0171 21.7371 13.6259L21.8227 13.391ZM16.0932 13.2326C18.38 13.2326 20.4351 13.7401 22.2115 14.4739L22.307 14.2429C20.5052 13.4986 18.4176 12.9826 16.0932 12.9826V13.2326ZM9.73217 14.5764C11.5632 13.7878 13.7015 13.2326 16.0932 13.2326V12.9826C13.6622 12.9826 11.4902 13.547 9.63328 14.3468L9.73217 14.5764ZM9.57384 14.4002L6.45953 19.9224L6.67729 20.0452L9.7916 14.523L9.57384 14.4002ZM6.65509 20.0738C6.97947 19.7617 7.34135 19.4361 7.73883 19.1105L7.58042 18.9171C7.1773 19.2473 6.81045 19.5774 6.48173 19.8937L6.65509 20.0738ZM7.73883 19.1105C9.69472 17.5085 12.5277 15.8944 16.0058 15.8944V15.6444C12.4483 15.6444 9.56083 17.295 7.58042 18.9171L7.73883 19.1105ZM16.0058 15.8944C19.4838 15.8944 22.3167 17.5085 24.2726 19.1105L24.431 18.9171C22.4506 17.295 19.5632 15.6444 16.0058 15.6444V15.8944ZM24.2726 19.1105C24.6601 19.4279 25.0138 19.7453 25.3318 20.0503L25.5049 19.8699C25.1825 19.5608 24.824 19.239 24.431 18.9171L24.2726 19.1105ZM25.5272 19.8987L22.3681 14.297L22.1504 14.4198L25.3095 20.0215L25.5272 19.8987ZM26.961 22.4427C26.9292 22.3988 26.8854 22.3393 26.83 22.2663L26.6309 22.4175C26.6851 22.4889 26.7277 22.5468 26.7585 22.5893L26.961 22.4427ZM26.83 22.2663C26.7377 22.1447 26.6131 21.9856 26.4574 21.7978L26.265 21.9573C26.4182 22.1422 26.5406 22.2985 26.6309 22.4175L26.83 22.2663ZM26.2818 21.7811L26.1441 21.8944L26.303 22.0874L26.4406 21.9741L26.2818 21.7811ZM26.1442 21.8943C25.8211 22.16 25.3661 22.5329 24.8378 22.9618L24.9954 23.1559C25.5241 22.7266 25.9796 22.3534 26.303 22.0874L26.1442 21.8943ZM24.8378 22.9618C23.7816 23.8194 22.4319 24.9019 21.2602 25.7991L21.4122 25.9976C22.5867 25.0982 23.9387 24.014 24.9954 23.1559L24.8378 22.9618ZM21.2602 25.7991C19.3391 27.2699 17.4114 27.7488 16.085 27.769L16.0888 28.019C17.4681 27.9979 19.4478 27.5015 21.4122 25.9976L21.2602 25.7991ZM15.9619 27.894V27.8947H16.2119V27.894H15.9619ZM16.0869 27.7697H15.9969V28.0197H16.0869V27.7697ZM16.1219 27.8947V27.894H15.8719V27.8947H16.1219ZM15.9988 27.769C14.6728 27.7488 12.745 27.2699 10.8239 25.7992L10.6719 25.9977C12.6363 27.5015 14.6162 27.9979 15.995 28.019L15.9988 27.769ZM10.8239 25.7992C9.65404 24.9033 8.30567 23.8651 7.24987 23.051L7.0972 23.2489C8.15308 24.0632 9.50171 25.1016 10.6719 25.9976L10.8239 25.7992ZM7.24987 23.051C6.72195 22.6439 6.26714 22.2928 5.94431 22.0434L5.79149 22.2413C6.11437 22.4907 6.56923 22.8418 7.0972 23.2489L7.24987 23.051ZM5.94433 22.0434L5.67796 21.8376L5.52511 22.0355L5.79148 22.2413L5.94433 22.0434ZM5.50491 21.8573C5.37194 22.0193 5.26379 22.1578 5.18137 22.2663L5.38048 22.4175C5.46112 22.3113 5.56732 22.1753 5.69817 22.0159L5.50491 21.8573ZM5.18137 22.2663C5.1165 22.3518 5.0676 22.4186 5.03511 22.4639L5.23817 22.6097C5.26944 22.5662 5.31702 22.5011 5.38049 22.4175L5.18137 22.2663ZM5.03511 22.4639C5.01887 22.4865 5.00673 22.5037 4.99875 22.5151L5.20359 22.6584C5.211 22.6478 5.22254 22.6315 5.23818 22.6097L5.03511 22.4639ZM4.99857 22.5154L4.99463 22.521L5.19984 22.6638L5.20377 22.6582L4.99857 22.5154ZM4.98835 22.531L3.13399 25.8191L3.35175 25.9419L5.20611 22.6538L4.98835 22.531ZM3.17406 25.9849C3.26509 26.0449 3.37991 26.1207 3.51511 26.21L3.65296 26.0015C3.51767 25.9121 3.40277 25.8362 3.31167 25.7762L3.17406 25.9849ZM3.51511 26.21C3.88062 26.4516 4.39511 26.7926 4.99111 27.19L5.12981 26.982C4.53348 26.5844 4.01869 26.2432 3.65296 26.0015L3.51511 26.21ZM4.99111 27.19C6.15867 27.9686 7.6397 28.9644 8.92629 29.8549L9.06857 29.6494C7.78023 28.7576 6.2978 27.7609 5.12981 26.982L4.99111 27.19ZM8.99743 29.8772H23.0921V29.6272H8.99743V29.8772ZM26.9127 26.9806C25.767 27.7582 24.3074 28.7544 23.0207 29.6495L23.1635 29.8548C24.449 28.9604 25.9077 27.9648 27.0531 27.1874L26.9127 26.9806ZM28.358 26.0025C28.0009 26.2434 27.4976 26.5836 26.9127 26.9806L27.0531 27.1874C27.6378 26.7906 28.1409 26.4506 28.4979 26.2097L28.358 26.0025ZM28.6888 25.7795C28.6004 25.8391 28.489 25.9141 28.358 26.0025L28.4979 26.2097C28.6288 26.1214 28.7401 26.0464 28.8285 25.9868L28.6888 25.7795ZM28.8675 25.8218L26.9686 22.4546L26.7509 22.5774L28.6498 25.9446L28.8675 25.8218ZM28.844 26.7227C28.9554 26.6475 29.0525 26.5821 29.1334 26.5275L28.9938 26.3202C28.9128 26.3748 28.8156 26.4403 28.7041 26.5155L28.844 26.7227ZM27.4006 27.6994C27.9847 27.303 28.4874 26.9633 28.844 26.7227L28.7041 26.5155C28.3474 26.7562 27.8445 27.096 27.2602 27.4926L27.4006 27.6994ZM24.2494 29.855C25.3319 29.1072 26.4694 28.3315 27.4006 27.6994L27.2602 27.4926C26.3287 28.1248 25.1906 28.901 24.1073 29.6493L24.2494 29.855ZM24.1783 29.8772H30.9406V29.6272H24.1783V29.8772ZM31.0495 29.6908L29.1725 26.3625L28.9547 26.4853L30.8317 29.8136L31.0495 29.6908ZM7.97658 29.649C6.88859 28.904 5.73461 28.1291 4.7865 27.4969L4.6478 27.7048C5.59547 28.3368 6.74852 29.1111 7.83534 29.8553L7.97658 29.649ZM4.78649 27.4969C4.19099 27.0998 3.67692 26.7591 3.31174 26.5177L3.17389 26.7263C3.53885 26.9675 4.05263 27.308 4.6478 27.7048L4.78649 27.4969ZM3.31174 26.5177C3.19389 26.4398 3.09154 26.3723 3.00698 26.3165L2.86933 26.5252C2.95384 26.5809 3.05611 26.6484 3.17389 26.7263L3.31174 26.5177ZM2.82928 26.3594L0.950543 29.6908L1.1683 29.8136L3.04703 26.4822L2.82928 26.3594ZM1.05942 29.8772H7.90596V29.6272H1.05942V29.8772ZM23.8805 19.5892C24.7071 20.2663 25.3748 20.9439 25.8641 21.4918L26.0506 21.3253C25.5544 20.7698 24.8775 20.0827 24.0389 19.3958L23.8805 19.5892ZM18.8003 16.8854C20.8367 17.4316 22.5554 18.5038 23.8805 19.5892L24.0389 19.3958C22.6956 18.2956 20.9457 17.202 18.8651 16.6439L18.8003 16.8854ZM21.0681 20.9159C21.0681 19.1614 20.2152 17.6048 18.9057 16.6632L18.7597 16.8661C20.0055 17.7619 20.8181 19.2437 20.8181 20.9159H21.0681ZM15.9826 26.1119C18.801 26.1119 21.0681 23.776 21.0681 20.9159H20.8181C20.8181 23.6436 18.6573 25.8619 15.9826 25.8619V26.1119ZM10.897 20.9159C10.897 23.776 13.1644 26.1119 15.9826 26.1119V25.8619C13.3081 25.8619 11.147 23.6436 11.147 20.9159H10.897ZM13.0311 16.6838C11.7376 17.6275 10.897 19.1741 10.897 20.9159H11.147C11.147 19.2559 11.9479 17.7835 13.1784 16.8858L13.0311 16.6838ZM8.13095 19.5892C9.44013 18.5169 11.1335 17.4574 13.1379 16.9053L13.0715 16.6643C11.0237 17.2283 9.29966 18.3088 7.97253 19.3958L8.13095 19.5892ZM6.09722 21.5481C6.59067 20.9907 7.27574 20.2897 8.13095 19.5892L7.97253 19.3958C7.10499 20.1064 6.41041 20.8172 5.91004 21.3824L6.09722 21.5481ZM6.32258 21.5537L6.08005 21.3663L5.9272 21.5641L6.16973 21.7515L6.32258 21.5537ZM7.62775 22.5609C7.09998 22.154 6.64529 21.8029 6.32256 21.5537L6.16975 21.7515C6.49252 22.0008 6.94725 22.3519 7.47508 22.7589L7.62775 22.5609ZM11.2001 25.3078C10.0311 24.4126 8.68336 23.3749 7.62775 22.5609L7.47508 22.7589C8.53077 23.573 9.87873 24.6109 11.0481 25.5063L11.2001 25.3078ZM16.043 27.1507C14.8489 27.1404 13.0325 26.7106 11.2001 25.3078L11.0481 25.5063C12.9241 26.9425 14.7933 27.39 16.0408 27.4007L16.043 27.1507ZM20.884 25.3078C19.0516 26.7106 17.2355 27.1404 16.0408 27.1507L16.043 27.4007C17.2911 27.39 19.16 26.9425 21.036 25.5063L20.884 25.3078ZM24.4478 22.4814C23.393 23.3378 22.0487 24.4159 20.884 25.3078L21.036 25.5063C22.2035 24.6122 23.55 23.5324 24.6053 22.6755L24.4478 22.4814ZM25.7511 21.4164C25.4288 21.6814 24.9748 22.0535 24.4478 22.4814L24.6053 22.6755C25.1329 22.2472 25.5873 21.8748 25.9099 21.6095L25.7511 21.4164ZM25.8779 21.312L25.7511 21.4164L25.9099 21.6094L26.0368 21.505L25.8779 21.312ZM14.719 20.9159C14.719 20.1862 15.2941 19.6119 15.9827 19.6119V19.3619C15.1509 19.3619 14.469 20.0533 14.469 20.9159H14.719ZM15.9827 22.2199C15.2941 22.2199 14.719 21.6456 14.719 20.9159H14.469C14.469 21.7785 15.1509 22.4699 15.9827 22.4699V22.2199ZM17.2463 20.9159C17.2463 21.6456 16.6712 22.2199 15.9827 22.2199V22.4699C16.8144 22.4699 17.4963 21.7785 17.4963 20.9159H17.2463ZM15.9827 19.6119C16.6712 19.6119 17.2463 20.1862 17.2463 20.9159H17.4963C17.4963 20.0533 16.8144 19.3619 15.9827 19.3619V19.6119ZM15.9827 18.7431C14.7952 18.7431 13.8502 19.7257 13.8502 20.9159H14.1002C14.1002 19.8579 14.9391 18.9931 15.9827 18.9931V18.7431ZM18.1151 20.9159C18.1151 19.7257 17.1701 18.7431 15.9827 18.7431V18.9931C17.0263 18.9931 17.8651 19.8579 17.8651 20.9159H18.1151ZM15.9827 23.0887C17.1701 23.0887 18.1151 22.1061 18.1151 20.9159H17.8651C17.8651 21.9739 17.0263 22.8387 15.9827 22.8387V23.0887ZM13.8502 20.9159C13.8502 22.1061 14.7952 23.0887 15.9827 23.0887V22.8387C14.9391 22.8387 14.1002 21.9739 14.1002 20.9159H13.8502ZM15.9826 16.3387C13.5199 16.3387 11.5158 18.384 11.5158 20.9159H11.7658C11.7658 18.5166 13.6633 16.5887 15.9826 16.5887V16.3387ZM20.4493 20.9159C20.4493 18.3839 18.4455 16.3387 15.9826 16.3387V16.5887C18.302 16.5887 20.1993 18.5166 20.1993 20.9159H20.4493ZM15.9826 25.4931C18.4455 25.4931 20.4493 23.4481 20.4493 20.9159H20.1993C20.1993 23.3155 18.302 25.2431 15.9826 25.2431V25.4931ZM11.5158 20.9159C11.5158 23.4481 13.5199 25.4931 15.9826 25.4931V25.2431C13.6633 25.2431 11.7658 23.3155 11.7658 20.9159H11.5158Z" fill="#2C0F5C"/>
</g>
<defs>
<clipPath id="clip0_260_163">
<rect width="32" height="32" fill="white"/>
</clipPath>
</defs>
</svg>
